<?xml version="1.0" encoding="utf-8"?>
<!-- Generator: Adobe Illustrator 27.5.0, SVG Export Plug-In . SVG Version: 6.00 Build 0)  -->
<svg version="1.1" xmlns="http://www.w3.org/2000/svg" xmlns:xlink="http://www.w3.org/1999/xlink" x="0px" y="0px"
	 viewBox="0 0 750 500" style="enable-background:new 0 0 750 500;" xml:space="preserve">
<g id="BACKGROUND">
	<rect style="fill:#9BCCF0;" width="750" height="500"/>
</g>
<g id="OBJECTS">
	<g>
		<ellipse style="fill:#82BFEC;" cx="646.683" cy="432.052" rx="43.375" ry="3.109"/>
		<g>
			<g>
				<path style="fill:#FFCB06;" d="M663.146,310.49c0,0-66.814-26.91-57.941-46.065c8.873-19.156,67.187,36.889,70.514,45.629"/>
				<path style="fill:#FFCB06;" d="M648.386,311.935c0,0-71.766-6.152-68.896-27.066c2.871-20.915,75.047,15.584,80.789,22.965"/>
				<path style="fill:none;stroke:#D88829;stroke-width:1.1339;stroke-miterlimit:10;" d="M652.897,309.884
					c-1.23,0-64.062-12.24-61.924-21.735c2.138-9.495,61.924,17.634,61.924,17.634"/>
				<path style="fill:none;stroke:#D88829;stroke-width:1.1339;stroke-miterlimit:10;" d="M614.862,284.258
					c26.651,6.677,44.196,21.427,44.196,21.427"/>
			</g>
			<g>
				<g>
					<g>
						<path style="fill:#FFCB06;" d="M681.447,388.993c6.057-1.919,4.328-5.261,1.576-5.229c3.399-2.547,2.592-5.236-0.67-5.281
							c4.034-5.043-1.482-5.95-4.425-5.082c-1.691-4.482-7.128-1.048-8.151,3.393C668.755,381.234,669.497,392.972,681.447,388.993z
							"/>
						
							<line style="fill:none;stroke:#D88829;stroke-width:1.1339;stroke-miterlimit:10;" x1="680.236" y1="384.773" x2="683.024" y2="383.764"/>
					</g>
					<path style="fill:#FFCB06;" d="M678.494,389.699c0,0-14.057,5.362-17.756,3.085c-3.699-2.277-3.2-22.206-3.034-23.439
						c0.165-1.233,11.649-0.209,11.649-0.209l-2.069,12.015l3.986-2.213L678.494,389.699z"/>
					
						<line style="fill:none;stroke:#D88829;stroke-width:1.1339;stroke-miterlimit:10;" x1="667.284" y1="381.152" x2="662.498" y2="383.803"/>
					<path style="fill:#8457ED;" d="M670.05,359.888c1.375,5.893-0.407,12.737-0.407,12.737l-13.042,0.46l0.951-11.503"/>
				</g>
				<path style="fill:none;stroke:#D88829;stroke-width:1.1339;stroke-miterlimit:10;" d="M677.929,373.4
					c2.316,6.783-1.261,8.519-3.444,3.879c1.199,4.461,0.054,5.801-1.551,6.553"/>
				<path style="fill:none;stroke:#D88829;stroke-width:1.1339;stroke-miterlimit:10;" d="M682.312,388.688
					c-4.499-0.003-5-3.005-1.456-4.139c-5.294,0.783-5.299-3.71-2.858-4.756c2.441-1.046,4.356-1.31,4.356-1.31"/>
			</g>
			<path style="fill:#FFCB06;" d="M663.2,350.33c-26.582-1.979-41.881-38.395,1.179-45.777c19.794-3.393,30.676,5.652,32.91,17.224
				c0.966,0.77,2.512,1.948,5.959,1.589C703.352,336.19,701.147,353.156,663.2,350.33z"/>
			<g>
				<defs>
					<path id="SVGID_39_" d="M663.2,350.33c-26.582-1.979-41.881-38.395,1.179-45.777c19.794-3.393,30.676,5.652,32.91,17.224
						c0.966,0.77,2.512,1.948,5.959,1.589C703.352,336.19,701.147,353.156,663.2,350.33z"/>
				</defs>
				<clipPath id="SVGID_00000139999719096178394860000012437141467336152720_">
					<use xlink:href="#SVGID_39_"  style="overflow:visible;"/>
				</clipPath>
				
					<ellipse style="clip-path:url(#SVGID_00000139999719096178394860000012437141467336152720_);fill:#FFFFFF;" cx="699.904" cy="331.363" rx="7.638" ry="10.099"/>
			</g>
			<g>
				<defs>
					<ellipse id="SVGID_38_" cx="684.679" cy="322.597" rx="7.587" ry="10.662"/>
				</defs>
				<clipPath id="SVGID_00000140695807886197008330000001405843291559871927_">
					<use xlink:href="#SVGID_38_"  style="overflow:visible;"/>
				</clipPath>
				
					<ellipse style="clip-path:url(#SVGID_00000140695807886197008330000001405843291559871927_);fill:#FFFFFF;" cx="684.679" cy="322.597" rx="7.587" ry="10.662"/>
				
					<ellipse style="clip-path:url(#SVGID_00000140695807886197008330000001405843291559871927_);fill:#202932;" cx="691.612" cy="322.597" rx="7.587" ry="10.662"/>
			</g>
			<path style="fill:#202932;" d="M700.878,328.877c-0.66-0.677-2.253-3.781-1.712-5.293c0.405-1.133,5.083-0.164,5.453,0.449
				C705.437,325.391,703.876,328.877,700.878,328.877z"/>
			<path style="fill:none;stroke:#202932;stroke-width:1.1339;stroke-miterlimit:10;" d="M696.459,330.194
				c0.495,4.523,4.381,4.381,5.936,1.484"/>
			<path style="fill:none;stroke:#202932;stroke-width:1.1339;stroke-miterlimit:10;" d="M699.272,333.918
				c0,0,2.05-6.681,2.673-7.949"/>
			<polygon style="fill:#FFCB06;" points="659.171,345.22 656.533,355.019 668.338,356.903 675.193,347.811 			"/>
			<path style="fill:#8457ED;" d="M663.325,382.105c4.025-5.988,5.858-13.521,6.398-15.592c1.131-4.334,1.656-13.644-10.552-15.872
				c-8.082-1.475-16.832,8.15-21.682,17.362C644.287,375.548,653.39,379.716,663.325,382.105z"/>
			<path style="fill:#42568F;" d="M637.489,368.003c-3.743,7.11-3.886,14.699,3.592,19.049c10.824,6.298,17.844,1.598,22.244-4.948
				C653.39,379.716,644.287,375.548,637.489,368.003z"/>
			<path style="fill:none;stroke:#6643B8;stroke-width:1.1339;stroke-miterlimit:10;" d="M667.469,373.827
				c1.877-4.464,1.807-13.707,1.807-13.707"/>
			<path style="fill:none;stroke:#202932;stroke-width:1.1339;stroke-miterlimit:10;" d="M641.785,395.469
				c-1.49-3.038-3.047-6.751-4.087-10.264"/>
			<g>
				<polygon style="fill:#E0B306;" points="617.184,410.077 635.915,383.628 649.628,389.381 621.206,420.66 				"/>
				<g>
					<g>
						<g id="XMLID_2_">
							<g>
								<path style="fill:#AB2E3B;" d="M627.581,424.697c3.67-1.016,6.406,4.027,3.233,6.218c-2.872,1.971-10.237,3.671-12.99-1.108
									c-3.057-5.32-7.763-12.136-7.052-13.874c1.064-2.604,6.411-5.859,6.411-5.859s4.489,6.769,6.015,8.196
									c5.216-3.556,10.275-0.043,2.76,2.759C626.784,422.785,627.106,423.435,627.581,424.697z"/>
							</g>
							<g>
							</g>
						</g>
					</g>
					<path style="fill:none;stroke:#961217;stroke-width:1.1339;stroke-miterlimit:10;" d="M626.02,426.1
						c0,0-3.439-5.687-2.822-7.834"/>
				</g>
				<polygon style="fill:#2A385C;" points="635.231,380.182 626.585,392.744 641.052,404.663 651.645,388.485 				"/>
				
					<line style="fill:none;stroke:#202932;stroke-width:1.1339;stroke-miterlimit:10;" x1="628.686" y1="389.691" x2="643.057" y2="401.601"/>
				<g>
					<defs>
						<path id="SVGID_37_" d="M617.184,410.077c0,0-5.349,3.256-6.411,5.852c-0.714,1.746,3.993,8.558,7.055,13.88
							c2.748,4.775,10.116,3.08,12.985,1.104c3.176-2.188,0.438-7.231-3.232-6.215c-0.475-1.265-0.794-1.914-1.619-3.668
							c7.516-2.806,2.451-6.316-2.763-2.765C621.673,416.841,617.184,410.077,617.184,410.077z"/>
					</defs>
					<clipPath id="SVGID_00000001637299309461761470000010516572821912140986_">
						<use xlink:href="#SVGID_37_"  style="overflow:visible;"/>
					</clipPath>
					<path style="clip-path:url(#SVGID_00000001637299309461761470000010516572821912140986_);fill:#E8E8E8;" d="M611.844,412.905
						c0,0,7.15,13.702,10.588,16.949c2.417-3.03,4.015-4.737,5.968-5.596c1.953-0.859,4.828,0.677,4.951,0.848
						c0.123,0.171,1.44,4.156,0.78,4.789c-0.661,0.633-6.119,4.337-6.119,4.337l-8.128-0.968l-4.361-5.972l-5.961-10.819
						L611.844,412.905z"/>
				</g>
			</g>
			<g>
				<path style="fill:#FFCB06;" d="M642.321,390.13l3.574,17.482l-8.542-2.384l0.437,10.179c0,0,10.6,6.441,16.687,2.7
					s2.289-22.856,2.289-22.856"/>
				<path style="fill:#42568F;" d="M639.7,381.152c0,9.73,2.003,20.962,2.003,20.962l18.318-0.848l-2.084-14.501"/>
				<path style="fill:none;stroke:#FFFFFF;stroke-width:1.1339;stroke-miterlimit:10;" d="M648.413,398.638
					c0.136-0.013-1.472-15.776,1.963-20.634"/>
				<path style="fill:none;stroke:#FFFFFF;stroke-width:1.1339;stroke-miterlimit:10;" d="M650.62,398.422
					c0,0-1.104-16.44,2.038-19.805"/>
				<g>
					<defs>
						<path id="SVGID_32_" d="M643.566,406.443c0,0-4.983-3.792-7.788-3.833c-1.886-0.028-7.56,7.649-11.075,12.682
							c-1.995,2.856-1.429,6.876,1.43,8.866c2.387,1.662,4.678,0.542,10.438-5.547c5.356,5.973,6.776-0.023,1.566-3.581
							C638.905,413.09,643.566,406.443,643.566,406.443z"/>
					</defs>
					<clipPath id="SVGID_00000072966780140383828290000001029290713039551146_">
						<use xlink:href="#SVGID_32_"  style="overflow:visible;"/>
					</clipPath>
					<g style="clip-path:url(#SVGID_00000072966780140383828290000001029290713039551146_);">
						<path style="fill:#BA3240;" d="M643.566,406.443c0,0-4.983-3.792-7.788-3.833c-1.886-0.028-7.56,7.649-11.075,12.682
							c-1.995,2.856-1.429,6.876,1.43,8.866c2.387,1.662,4.678,0.542,10.438-5.547c5.356,5.973,6.776-0.023,1.566-3.581
							C638.905,413.09,643.566,406.443,643.566,406.443z"/>
						<path style="fill:#FFFFFF;" d="M638.899,402.587c0,0-8.366,8.496-11.258,12.961c4.534,2.096,5.316,8.148,5.316,8.148
							l-5.633,2.363l-2.394-2.66c-2.033-2.26-2.217-5.631-0.441-8.098l9.532-13.245L638.899,402.587z"/>
					</g>
					
						<path style="clip-path:url(#SVGID_00000072966780140383828290000001029290713039551146_);fill:none;stroke:#961217;stroke-width:1.1339;stroke-miterlimit:10;" d="
						M631.536,419.448c0,0,4.376-4.209,6.601-4.418"/>
				</g>
				
					<line style="fill:none;stroke:#202932;stroke-width:1.1339;stroke-miterlimit:10;" x1="641.445" y1="399.32" x2="659.059" y2="397.595"/>
				<path style="fill:none;stroke:#202932;stroke-width:1.1339;stroke-miterlimit:10;" d="M644.534,402.114
					c-0.578-0.104-2.832,0-2.832,0l-1.862-14.31"/>
			</g>
			<g>
				<g>
					<path style="fill:#FFCB06;" d="M629.209,385.329c1.137,6.606,4.878,5.277,5.239,2.397c2.175,3.917,5.1,3.46,5.615,0.057
						c4.692,4.939,6.431-0.695,5.946-3.896c4.927-1.124,2.118-7.299-2.377-9.005C639.138,373.177,626.765,372.269,629.209,385.329z"
						/>
					
						<line style="fill:none;stroke:#D88829;stroke-width:1.1339;stroke-miterlimit:10;" x1="644.906" y1="379.665" x2="646.01" y2="383.888"/>
					
						<line style="fill:none;stroke:#D88829;stroke-width:1.1339;stroke-miterlimit:10;" x1="639.336" y1="384.711" x2="640.064" y2="387.784"/>
					
						<line style="fill:none;stroke:#D88829;stroke-width:1.1339;stroke-miterlimit:10;" x1="633.793" y1="384.669" x2="634.448" y2="387.726"/>
				</g>
				<path style="fill:#FFCB06;" d="M628.894,382.141c0,0-2.807-14.567-1.678-19.008c1.129-4.441,21.078-8.253,22.371-8.474
					c1.293-0.221,3.875,11.664,3.875,11.664l-12.749,1.697l0.463,8.114L628.894,382.141z"/>
				
					<line style="fill:none;stroke:#D88829;stroke-width:1.1339;stroke-miterlimit:10;" x1="640.714" y1="368.021" x2="640.537" y2="365.305"/>
				<path style="fill:#8457ED;" d="M659.849,365.596c-0.819-0.156-11.241,2.117-11.241,2.117l-3.134-12.988l11.882-2.661"/>
				
					<line style="fill:none;stroke:#6643B8;stroke-width:1.1339;stroke-miterlimit:10;" x1="648.608" y1="367.713" x2="658.383" y2="365.781"/>
				
					<line style="fill:none;stroke:#6643B8;stroke-width:1.1339;stroke-miterlimit:10;" x1="645.69" y1="354.657" x2="654.032" y2="352.725"/>
			</g>
			<path style="fill:#FFFFFF;" d="M639.773,408.506c0,1.071-0.869,1.94-1.94,1.94c-1.071,0-1.94-0.868-1.94-1.94
				c0-1.071,0.868-1.94,1.94-1.94C638.905,406.566,639.773,407.435,639.773,408.506z"/>
			<path style="fill:none;stroke:#D88829;stroke-width:1.1339;stroke-miterlimit:10;" d="M659.059,305.685
				c0,0,8.355-1.927,12.238-1.838"/>
			
				<line style="fill:none;stroke:#6643B8;stroke-width:1.1339;stroke-miterlimit:10;" x1="648.608" y1="353.981" x2="651.729" y2="367.048"/>
			<path style="fill:none;stroke:#6643B8;stroke-width:1.1339;stroke-miterlimit:10;" d="M641.445,369.288
				c0,0,13.757,10.482,23.07,10.894"/>
			
				<line style="fill:none;stroke:#6643B8;stroke-width:1.1339;stroke-miterlimit:10;" x1="668.04" y1="370.984" x2="670.014" y2="370.856"/>
		</g>
	</g>
	<g>
		<ellipse style="fill:#82BFEC;" cx="469.112" cy="432.052" rx="43.375" ry="3.109"/>
		<g>
			<g>
				<path style="fill:#FFCB06;" d="M482.399,319.248c0,0-61.126-38.103-49.062-55.427c12.064-17.324,59.761,47.996,61.519,57.181"/>
				<path style="fill:#FFCB06;" d="M467.612,318.107c0,0-69.608-18.52-63.149-38.619c6.459-20.099,71.201,28.379,75.573,36.645"/>
				<path style="fill:none;stroke:#D88829;stroke-width:1.1339;stroke-miterlimit:10;" d="M472.41,316.871
					c-1.212-0.214-60.964-23.178-57.209-32.158c3.755-8.979,57.921,28.119,57.921,28.119"/>
				<path style="fill:none;stroke:#D88829;stroke-width:1.1339;stroke-miterlimit:10;" d="M439.404,285.029
					c25.087,11.203,39.644,26.866,39.644,26.866"/>
			</g>
			<g>
				<polygon style="fill:#FFCB06;" points="481.713,346.197 479.075,355.996 490.88,357.88 497.735,348.788 				"/>
				<path style="fill:#FFCB06;" d="M463.941,389.889l7.716,14.723l-5.934,15.829l11.132,2.638c0,0,4.917-7.713,9.012-13.567
					c4.096-5.854-6.635-20.672-6.635-20.672"/>
				<path style="fill:#42568F;" d="M461.21,385.585c0.379,7.109,5.091,14.532,5.091,14.532l17.861-5.844l-5.087-11.715"/>
				<g>
					<defs>
						<path id="SVGID_31_" d="M465.756,419.194c0,0-1.42,6.099-0.309,8.675c0.747,1.732,10.073,3.766,16.105,4.913
							c3.422,0.651,6.858-1.511,7.504-4.934c0.539-2.859-1.42-4.49-9.334-7.253c3.258-7.332-2.794-6.173-3.908,0.038
							C473.729,420.724,465.756,419.194,465.756,419.194z"/>
					</defs>
					<clipPath id="SVGID_00000100352927595496557110000005695317137165636014_">
						<use xlink:href="#SVGID_31_"  style="overflow:visible;"/>
					</clipPath>
					<g style="clip-path:url(#SVGID_00000100352927595496557110000005695317137165636014_);">
						<path style="fill:#BA3240;" d="M465.756,419.194c0,0-1.42,6.099-0.309,8.675c1.111,2.576,21.201,5.82,21.201,5.82
							c3.367-7.302,5.133-8.885-6.925-13.095c3.258-7.332-2.794-6.173-3.908,0.038C473.729,420.724,465.756,419.194,465.756,419.194
							z"/>
						<path style="fill:#FFFFFF;" d="M464.149,425.03c0,0,11.177,4.155,16.434,4.966c0.057-4.994,5.258-8.185,5.258-8.185
							l4.462,4.172l-3.554,8.036l-21.088-4.32L464.149,425.03z"/>
					</g>
					
						<path style="clip-path:url(#SVGID_00000100352927595496557110000005695317137165636014_);fill:none;stroke:#961217;stroke-width:1.1339;stroke-miterlimit:10;" d="
						M482.547,424.846c0,0-5.631-2.27-6.733-4.214"/>
				</g>
				
					<line style="fill:none;stroke:#202932;stroke-width:1.1339;stroke-miterlimit:10;" x1="464.951" y1="397.707" x2="482.616" y2="390.712"/>
				<path style="fill:#E0B306;" d="M463.941,389.889l7.716,14.723l-5.934,15.829l11.132,2.638c0,0,4.917-7.713,9.012-13.567
					c4.096-5.854-6.635-20.672-6.635-20.672"/>
				<path style="fill:#2A385C;" d="M461.21,385.585c0.379,7.109,5.091,14.532,5.091,14.532l17.861-5.844l-5.087-11.715"/>
				<g>
					<defs>
						<path id="SVGID_30_" d="M465.756,419.194c0,0-1.42,6.099-0.309,8.675c0.747,1.732,10.073,3.766,16.105,4.913
							c3.422,0.651,6.858-1.511,7.504-4.934c0.539-2.859-1.42-4.49-9.334-7.253c3.258-7.332-2.794-6.173-3.908,0.038
							C473.729,420.724,465.756,419.194,465.756,419.194z"/>
					</defs>
					<clipPath id="SVGID_00000070834765847458309620000000598340644855579801_">
						<use xlink:href="#SVGID_30_"  style="overflow:visible;"/>
					</clipPath>
					<g style="clip-path:url(#SVGID_00000070834765847458309620000000598340644855579801_);">
						<path style="fill:#AB2E3B;" d="M465.756,419.194c0,0-1.42,6.099-0.309,8.675c1.111,2.576,21.201,5.82,21.201,5.82
							c3.367-7.302,5.133-8.885-6.925-13.095c3.258-7.332-2.794-6.173-3.908,0.038C473.729,420.724,465.756,419.194,465.756,419.194
							z"/>
						<path style="fill:#E8E8E8;" d="M464.149,425.03c0,0,11.177,4.155,16.434,4.966c0.057-4.994,5.258-8.185,5.258-8.185
							l4.462,4.172l-3.554,8.036l-21.088-4.32L464.149,425.03z"/>
					</g>
					
						<path style="clip-path:url(#SVGID_00000070834765847458309620000000598340644855579801_);fill:none;stroke:#961217;stroke-width:1.1339;stroke-miterlimit:10;" d="
						M482.547,424.846c0,0-5.631-2.27-6.733-4.214"/>
				</g>
				
					<line style="fill:none;stroke:#202932;stroke-width:1.1339;stroke-miterlimit:10;" x1="464.951" y1="397.707" x2="482.616" y2="390.712"/>
				<path style="fill:#FFCB06;" d="M457.539,381.322l-7.274,14.946l-13.385-2.697l-0.447,11.431c0,0,11.176,5.788,18.318,5.612
					c7.143-0.176,12.704-17.606,12.704-17.606"/>
				<path style="fill:#42568F;" d="M459.384,376.57c-5.498,4.522-8.678,12.719-8.678,12.719l15.301,10.911l6.412-11.046"/>
				<g>
					<defs>
						<path id="SVGID_29_" d="M441.127,394.294c0,0-5.341-3.27-8.135-3.028c-1.879,0.163-6.749,8.373-9.739,13.735
							c-1.696,3.043-0.728,6.985,2.318,8.677c2.543,1.413,4.709,0.067,9.825-6.572c5.931,5.402,6.739-0.706,1.196-3.721
							C437.161,401.378,441.127,394.294,441.127,394.294z"/>
					</defs>
					<clipPath id="SVGID_00000102514716977323157590000012435159172871038897_">
						<use xlink:href="#SVGID_29_"  style="overflow:visible;"/>
					</clipPath>
					<g style="clip-path:url(#SVGID_00000102514716977323157590000012435159172871038897_);">
						<path style="fill:#BA3240;" d="M441.127,394.294c0,0-5.341-3.27-8.135-3.028s-12.206,18.285-12.206,18.285
							c5.868,5.497,6.814,7.672,14.61-2.445c5.931,5.402,6.739-0.706,1.196-3.721C437.161,401.378,441.127,394.294,441.127,394.294z
							"/>
						<path style="fill:#FFFFFF;" d="M436.095,390.93c0,0-7.466,9.297-9.893,14.031c4.722,1.628,6.111,7.57,6.111,7.57l-5.366,2.919
							l-6.506-5.905l10.746-18.652L436.095,390.93z"/>
					</g>
					
						<path style="clip-path:url(#SVGID_00000102514716977323157590000012435159172871038897_);fill:none;stroke:#961217;stroke-width:1.1339;stroke-miterlimit:10;" d="
						M430.471,408.447c0,0,3.929-4.629,6.121-5.061"/>
				</g>
				
					<line style="fill:none;stroke:#202932;stroke-width:1.1339;stroke-miterlimit:10;" x1="451.845" y1="386.773" x2="467.956" y2="396.844"/>
				<path style="fill:#FFCB06;" d="M485.742,355.735c-26.582-1.98-41.881-38.395,1.179-45.777
					c19.794-3.393,30.676,5.652,32.91,17.224c0.966,0.77,2.512,1.948,5.959,1.589C525.894,341.595,523.689,358.561,485.742,355.735z
					"/>
				<g>
					<defs>
						<path id="SVGID_28_" d="M485.742,355.735c-26.582-1.98-41.881-38.395,1.179-45.777c19.794-3.393,30.676,5.652,32.91,17.224
							c0.966,0.77,2.512,1.948,5.959,1.589C525.894,341.595,523.689,358.561,485.742,355.735z"/>
					</defs>
					<clipPath id="SVGID_00000140004293777654127180000017440949582387872670_">
						<use xlink:href="#SVGID_28_"  style="overflow:visible;"/>
					</clipPath>
					
						<ellipse style="clip-path:url(#SVGID_00000140004293777654127180000017440949582387872670_);fill:#FFFFFF;" cx="522.446" cy="336.768" rx="7.638" ry="10.099"/>
				</g>
				<g>
					<defs>
						<ellipse id="SVGID_27_" cx="507.221" cy="328.002" rx="7.587" ry="10.662"/>
					</defs>
					<clipPath id="SVGID_00000123417598652574019690000008276123619107531428_">
						<use xlink:href="#SVGID_27_"  style="overflow:visible;"/>
					</clipPath>
					
						<ellipse style="clip-path:url(#SVGID_00000123417598652574019690000008276123619107531428_);fill:#FFFFFF;" cx="507.221" cy="328.002" rx="7.587" ry="10.662"/>
					
						<ellipse style="clip-path:url(#SVGID_00000123417598652574019690000008276123619107531428_);fill:#202932;" cx="514.154" cy="328.002" rx="7.587" ry="10.662"/>
				</g>
				<path style="fill:#8457ED;" d="M485.867,383.082c4.025-5.988,5.858-13.521,6.398-15.592c1.131-4.334,1.656-13.644-10.552-15.872
					c-8.082-1.475-16.832,8.151-21.682,17.362C466.829,376.525,475.932,380.693,485.867,383.082z"/>
				<path style="fill:#42568F;" d="M460.031,368.98c-3.743,7.109-3.886,14.699,3.592,19.049c10.824,6.298,17.845,1.598,22.244-4.948
					C475.932,380.693,466.829,376.525,460.031,368.98z"/>
				
					<line style="fill:none;stroke:#202932;stroke-width:1.1339;stroke-miterlimit:10;" x1="481.803" y1="388.839" x2="479.797" y2="384.221"/>
				<g>
					<g>
						<path style="fill:#FFCB06;" d="M500.044,391.616c6.693,0.358,6.229-3.585,3.501-4.576c4.302-1.251,4.506-4.205,1.303-5.463
							c5.858-3.478,0.75-6.425-2.478-6.663c-0.002-5.053-6.647-3.685-9.308,0.318C490.4,379.236,486.767,391.099,500.044,391.616z"
							/>
						
							<line style="fill:none;stroke:#D88829;stroke-width:1.1339;stroke-miterlimit:10;" x1="498.007" y1="375.053" x2="502.369" y2="374.914"/>
						
							<line style="fill:none;stroke:#D88829;stroke-width:1.1339;stroke-miterlimit:10;" x1="501.69" y1="381.604" x2="504.847" y2="381.577"/>
						
							<line style="fill:none;stroke:#D88829;stroke-width:1.1339;stroke-miterlimit:10;" x1="500.418" y1="386.999" x2="503.545" y2="387.039"/>
					</g>
					<path style="fill:#FFCB06;" d="M496.866,391.215c0,0-14.827-0.497-18.906-2.584c-4.079-2.087-3.366-22.384-3.295-23.694
						c0.071-1.31,12.233-1.189,12.233-1.189l-1.176,12.808l8.014,1.35L496.866,391.215z"/>
					
						<line style="fill:none;stroke:#D88829;stroke-width:1.1339;stroke-miterlimit:10;" x1="485.722" y1="376.555" x2="483.035" y2="376.125"/>
					<path style="fill:#8457ED;" d="M487.607,357.359c-0.334,0.764-0.114,10.034-0.114,10.034l-13.677,1.569l0.044-12.176"/>
					
						<line style="fill:none;stroke:#6643B8;stroke-width:1.1339;stroke-miterlimit:10;" x1="487.493" y1="367.392" x2="487.461" y2="358.83"/>
				</g>
				
					<line style="fill:none;stroke:#202932;stroke-width:1.1339;stroke-miterlimit:10;" x1="466.008" y1="400.2" x2="469.645" y2="392.611"/>
				<path style="fill:#202932;" d="M523.891,334.003c-0.66-0.677-2.253-3.781-1.712-5.293c0.405-1.133,5.083-0.164,5.453,0.449
					C528.45,330.517,526.89,334.003,523.891,334.003z"/>
				<path style="fill:none;stroke:#202932;stroke-width:1.1339;stroke-miterlimit:10;" d="M519.472,335.321
					c0.495,4.522,4.381,4.381,5.936,1.484"/>
				<path style="fill:none;stroke:#202932;stroke-width:1.1339;stroke-miterlimit:10;" d="M522.285,339.044
					c0,0,2.05-6.681,2.673-7.949"/>
				<path style="fill:#FFCB06;" d="M457.539,381.322l-7.274,14.946l-13.385-2.697l-0.447,11.431c0,0,11.176,5.788,18.318,5.612
					c7.143-0.176,12.704-17.606,12.704-17.606"/>
				<path style="fill:#42568F;" d="M459.384,376.57c-5.498,4.522-8.678,12.719-8.678,12.719l15.301,10.911l6.412-11.046"/>
				
					<line style="fill:none;stroke:#FFFFFF;stroke-width:1.1339;stroke-miterlimit:10;" x1="459.629" y1="391.638" x2="469.347" y2="376.125"/>
				
					<line style="fill:none;stroke:#FFFFFF;stroke-width:1.1339;stroke-miterlimit:10;" x1="457.518" y1="390.319" x2="466.617" y2="374.817"/>
				<g>
					<defs>
						<path id="SVGID_26_" d="M441.127,394.294c0,0-5.341-3.27-8.135-3.028c-1.879,0.163-6.749,8.373-9.739,13.735
							c-1.696,3.043-0.728,6.985,2.318,8.677c2.543,1.413,4.709,0.067,9.825-6.572c5.931,5.402,6.739-0.706,1.196-3.721
							C437.161,401.378,441.127,394.294,441.127,394.294z"/>
					</defs>
					<clipPath id="SVGID_00000034779719129153613440000016583356386094122114_">
						<use xlink:href="#SVGID_26_"  style="overflow:visible;"/>
					</clipPath>
					<g style="clip-path:url(#SVGID_00000034779719129153613440000016583356386094122114_);">
						<path style="fill:#BA3240;" d="M441.127,394.294c0,0-5.341-3.27-8.135-3.028s-12.206,18.285-12.206,18.285
							c5.868,5.497,6.814,7.672,14.61-2.445c5.931,5.402,6.739-0.706,1.196-3.721C437.161,401.378,441.127,394.294,441.127,394.294z
							"/>
						<path style="fill:#FFFFFF;" d="M436.095,390.93c0,0-7.466,9.297-9.893,14.031c4.722,1.628,6.111,7.57,6.111,7.57l-5.366,2.919
							l-6.506-5.905l10.746-18.652L436.095,390.93z"/>
					</g>
					
						<path style="clip-path:url(#SVGID_00000034779719129153613440000016583356386094122114_);fill:none;stroke:#961217;stroke-width:1.1339;stroke-miterlimit:10;" d="
						M430.471,408.447c0,0,3.929-4.629,6.121-5.061"/>
				</g>
				
					<line style="fill:none;stroke:#202932;stroke-width:1.1339;stroke-miterlimit:10;" x1="451.845" y1="386.773" x2="467.956" y2="396.844"/>
				<g>
					<defs>
						<ellipse id="SVGID_25_" cx="507.221" cy="328.002" rx="7.587" ry="10.662"/>
					</defs>
					<clipPath id="SVGID_00000062160615674259722820000007024696586571782812_">
						<use xlink:href="#SVGID_25_"  style="overflow:visible;"/>
					</clipPath>
					
						<ellipse style="clip-path:url(#SVGID_00000062160615674259722820000007024696586571782812_);fill:#FFFFFF;" cx="507.221" cy="328.002" rx="7.587" ry="10.662"/>
					
						<ellipse style="clip-path:url(#SVGID_00000062160615674259722820000007024696586571782812_);fill:#202932;" cx="514.154" cy="328.002" rx="7.587" ry="10.662"/>
				</g>
				
					<line style="fill:none;stroke:#202932;stroke-width:1.1339;stroke-miterlimit:10;" x1="481.803" y1="388.839" x2="479.797" y2="384.221"/>
				<g>
					<g>
						<path style="fill:#FFCB06;" d="M500.044,391.616c6.693,0.358,6.229-3.585,3.501-4.576c4.302-1.251,4.506-4.205,1.303-5.463
							c5.858-3.478,0.75-6.425-2.478-6.663c-0.002-5.053-6.647-3.685-9.308,0.318C490.4,379.236,486.767,391.099,500.044,391.616z"
							/>
						
							<line style="fill:none;stroke:#D88829;stroke-width:1.1339;stroke-miterlimit:10;" x1="498.007" y1="375.053" x2="502.369" y2="374.914"/>
						
							<line style="fill:none;stroke:#D88829;stroke-width:1.1339;stroke-miterlimit:10;" x1="501.69" y1="381.604" x2="504.847" y2="381.577"/>
						
							<line style="fill:none;stroke:#D88829;stroke-width:1.1339;stroke-miterlimit:10;" x1="500.418" y1="386.999" x2="503.545" y2="387.039"/>
					</g>
					<path style="fill:#FFCB06;" d="M496.866,391.215c0,0-14.827-0.497-18.906-2.584c-4.079-2.087-3.366-22.384-3.295-23.694
						c0.071-1.31,12.233-1.189,12.233-1.189l-1.176,12.808l8.014,1.35L496.866,391.215z"/>
					
						<line style="fill:none;stroke:#D88829;stroke-width:1.1339;stroke-miterlimit:10;" x1="485.722" y1="376.555" x2="483.035" y2="376.125"/>
					<path style="fill:#8457ED;" d="M487.607,357.359c-0.334,0.764-0.114,10.034-0.114,10.034l-13.677,1.569l0.044-12.176"/>
					
						<line style="fill:none;stroke:#6643B8;stroke-width:1.1339;stroke-miterlimit:10;" x1="487.493" y1="367.392" x2="487.461" y2="358.83"/>
				</g>
				
					<line style="fill:none;stroke:#202932;stroke-width:1.1339;stroke-miterlimit:10;" x1="466.008" y1="400.2" x2="472.686" y2="388.385"/>
			</g>
			
				<line style="fill:none;stroke:#6643B8;stroke-width:1.1339;stroke-miterlimit:10;" x1="473.815" y1="368.961" x2="472.42" y2="357.88"/>
			<path style="fill:#FFFFFF;" d="M437.236,396.844c0,1.071-0.868,1.94-1.94,1.94c-1.071,0-1.94-0.868-1.94-1.94
				c0-1.071,0.868-1.94,1.94-1.94C436.368,394.904,437.236,395.772,437.236,396.844z"/>
			<path style="fill:none;stroke:#D88829;stroke-width:1.1339;stroke-miterlimit:10;" d="M479.048,311.895
				c0,0,8.846-2.243,11.458-2.427"/>
			
				<line style="fill:none;stroke:#6643B8;stroke-width:1.1339;stroke-miterlimit:10;" x1="473.452" y1="366.072" x2="487.493" y2="364.788"/>
			<path style="fill:none;stroke:#6643B8;stroke-width:1.1339;stroke-miterlimit:10;" d="M461.21,366.87
				c0,0,6.756,6.883,13.363,9.255"/>
		</g>
	</g>
	<g>
		<ellipse style="fill:#82BFEC;" cx="291.811" cy="432.052" rx="43.375" ry="3.109"/>
		<g>
			<g>
				<path style="fill:#FFCB06;" d="M308.971,310.431c0,0-66.814-26.91-57.941-46.065c8.873-19.156,67.187,36.889,70.514,45.629"/>
				<path style="fill:#FFCB06;" d="M294.211,311.875c0,0-71.767-6.151-68.896-27.066c2.871-20.915,75.047,15.584,80.789,22.965"/>
				<path style="fill:none;stroke:#D88829;stroke-width:1.1339;stroke-miterlimit:10;" d="M298.722,309.824
					c-1.23,0-64.062-12.24-61.924-21.735c2.138-9.495,61.924,17.634,61.924,17.634"/>
				<path style="fill:none;stroke:#D88829;stroke-width:1.1339;stroke-miterlimit:10;" d="M260.688,284.198
					c26.651,6.677,44.419,21.37,44.419,21.37"/>
			</g>
			<path style="fill:#E0B306;" d="M294.489,392.192l15.173,10.721l2.255,17.515l11.117-3.671c0,0,0.099-5.492-0.005-13.793
				c-0.09-7.144-14.801-17.566-14.801-17.566"/>
			<path style="fill:#2A385C;" d="M290.324,389.252c5.105,6.335,12.336,11.497,12.336,11.497l12.194-12.206l-12.265-8.736"/>
			<g>
				<defs>
					<path id="SVGID_24_" d="M311.092,415.676c0,0,0.267,6.257,2.027,8.441c1.184,1.469,10.714,0.929,16.833,0.417
						c3.471-0.29,6.202-3.294,5.907-6.765c-0.246-2.899-2.572-3.945-10.936-4.486c1.174-7.936-4.346-5.198-3.755,1.084
						C319.184,415.014,311.092,415.676,311.092,415.676z"/>
				</defs>
				<clipPath id="SVGID_00000026157910770691954100000005203197202576468098_">
					<use xlink:href="#SVGID_24_"  style="overflow:visible;"/>
				</clipPath>
				<g style="clip-path:url(#SVGID_00000026157910770691954100000005203197202576468098_);">
					<path style="fill:#AB2E3B;" d="M311.092,415.676c0,0,0.267,6.257,2.027,8.441c1.76,2.184,21.985-0.074,21.985-0.074
						c1.287-7.937,2.564-9.935-10.181-10.76c1.174-7.936-4.346-5.198-3.755,1.084C319.184,415.014,311.092,415.676,311.092,415.676z
						"/>
					<path style="fill:#E8E8E8;" d="M311.108,421.73c0,0,11.881,1.007,17.164,0.38c-1.284-4.827,2.872-9.295,2.872-9.295
						l5.416,2.824l-1.27,8.694l-21.474,1.49L311.108,421.73z"/>
				</g>
				
					<path style="clip-path:url(#SVGID_00000026157910770691954100000005203197202576468098_);fill:none;stroke:#961217;stroke-width:1.1339;stroke-miterlimit:10;" d="
					M328.783,416.622c0,0-6.033-0.677-7.616-2.255"/>
			</g>
			
				<line style="fill:none;stroke:#202932;stroke-width:1.1339;stroke-miterlimit:10;" x1="300.914" y1="399.036" x2="311.032" y2="386.841"/>
			<g>
				<g>
					<g>
						<g>
							<path style="fill:#FFCB06;" d="M264.246,365.459c-0.069,6.354,3.646,5.755,4.475,3.131c1.358,4.024,4.164,4.098,5.226,1.014
								c3.53,5.408,6.115,0.451,6.21-2.616c4.786-0.206,3.223-6.444-0.677-8.803C275.582,355.826,264.2,352.863,264.246,365.459z"/>
							
								<line style="fill:none;stroke:#D88829;stroke-width:1.1339;stroke-miterlimit:10;" x1="268.633" y1="365.627" x2="268.721" y2="368.59"/>
						</g>
						<path style="fill:#FFCB06;" d="M264.498,362.433c0,0-0.702-15.028,2.617-17.831c3.318-2.803,22.094,3.897,23.214,4.44
							c1.119,0.542-3.44,11.131-3.44,11.131l-10.768-5.719l0.857,4.478L264.498,362.433z"/>
						
							<line style="fill:none;stroke:#D88829;stroke-width:1.1339;stroke-miterlimit:10;" x1="276.12" y1="354.454" x2="275.096" y2="349.079"/>
						<path style="fill:#8457ED;" d="M292.527,366.152c-0.545-0.572-9.547-5.061-9.547-5.061l4.14-14.266l14.451,6.114"/>
					</g>
					<path style="fill:none;stroke:#D88829;stroke-width:1.1339;stroke-miterlimit:10;" d="M280.158,366.988
						c-7.167,0.081-7.699-3.859-2.609-4.483c-4.612-0.254-5.528-1.761-5.741-3.52"/>
					<path style="fill:none;stroke:#D88829;stroke-width:1.1339;stroke-miterlimit:10;" d="M264.266,366.375
						c1.408-4.273,4.417-3.811,4.387-0.09c0.91-5.274,5.18-3.875,5.411-1.229c0.231,2.646-0.116,4.547-0.116,4.547"/>
				</g>
				<path style="fill:#FFCB06;" d="M255.546,390.534l14.202,0.575l15.343-11.301l11.271,9.701c0,0-16.066,11.634-22.397,12.964
					c-6.174,1.297-25.08-2.784-25.08-2.784L255.546,390.534z"/>
				<path style="fill:#FFCB06;" d="M309.025,350.27c-26.582-1.98-41.881-38.395,1.179-45.777
					c19.794-3.393,30.676,5.652,32.91,17.224c0.966,0.77,2.512,1.948,5.96,1.589C349.177,336.13,346.972,353.096,309.025,350.27z"/>
				<g>
					<defs>
						<path id="SVGID_23_" d="M309.025,350.27c-26.582-1.98-41.881-38.395,1.179-45.777c19.794-3.393,30.676,5.652,32.91,17.224
							c0.966,0.77,2.512,1.948,5.96,1.589C349.177,336.13,346.972,353.096,309.025,350.27z"/>
					</defs>
					<clipPath id="SVGID_00000093881447316567671420000015700393233306189470_">
						<use xlink:href="#SVGID_23_"  style="overflow:visible;"/>
					</clipPath>
					
						<ellipse style="clip-path:url(#SVGID_00000093881447316567671420000015700393233306189470_);fill:#FFFFFF;" cx="345.729" cy="331.303" rx="7.638" ry="10.099"/>
				</g>
				<g>
					<defs>
						<ellipse id="SVGID_22_" cx="330.504" cy="322.537" rx="7.587" ry="10.662"/>
					</defs>
					<clipPath id="SVGID_00000051348876530430730510000012599194720679093435_">
						<use xlink:href="#SVGID_22_"  style="overflow:visible;"/>
					</clipPath>
					
						<ellipse style="clip-path:url(#SVGID_00000051348876530430730510000012599194720679093435_);fill:#FFFFFF;" cx="330.504" cy="322.537" rx="7.587" ry="10.662"/>
					
						<ellipse style="clip-path:url(#SVGID_00000051348876530430730510000012599194720679093435_);fill:#202932;" cx="337.437" cy="322.537" rx="7.587" ry="10.662"/>
				</g>
				<path style="fill:#202932;" d="M346.703,328.817c-0.66-0.677-2.253-3.781-1.712-5.293c0.405-1.133,5.083-0.164,5.453,0.449
					C351.262,325.331,349.702,328.817,346.703,328.817z"/>
				<path style="fill:none;stroke:#202932;stroke-width:1.1339;stroke-miterlimit:10;" d="M342.284,330.135
					c0.495,4.522,4.381,4.381,5.936,1.484"/>
				<path style="fill:none;stroke:#202932;stroke-width:1.1339;stroke-miterlimit:10;" d="M345.097,333.858
					c0,0,2.05-6.681,2.673-7.949"/>
				<polygon style="fill:#FFCB06;" points="304.996,347.375 302.358,357.173 314.164,359.057 321.019,349.966 				"/>
				<path style="fill:#8457ED;" d="M309.151,384.259c4.025-5.988,5.858-13.521,6.398-15.592c1.131-4.334,1.656-13.644-10.552-15.872
					c-8.082-1.475-16.832,8.151-21.682,17.362C290.112,377.702,299.215,381.871,309.151,384.259z"/>
				<path style="fill:#42568F;" d="M283.314,370.158c-3.743,7.11-3.886,14.699,3.592,19.05c10.824,6.298,17.845,1.597,22.244-4.948
					C299.215,381.871,290.112,377.702,283.314,370.158z"/>
				<g>
					<defs>
						<path id="SVGID_21_" d="M255.546,390.534c0,0-5.651-2.698-8.406-2.167c-1.852,0.357-5.844,9.028-8.261,14.672
							c-1.372,3.202,0.001,7.023,3.205,8.389c2.676,1.142,4.691-0.422,9.09-7.556c6.46,4.758,6.629-1.402,0.804-3.825
							C252.337,397.991,255.546,390.534,255.546,390.534z"/>
					</defs>
					<clipPath id="SVGID_00000160897496973292305740000004193315938541538976_">
						<use xlink:href="#SVGID_21_"  style="overflow:visible;"/>
					</clipPath>
					<g style="clip-path:url(#SVGID_00000160897496973292305740000004193315938541538976_);">
						<path style="fill:#BA3240;" d="M255.546,390.534c0,0-5.651-2.698-8.406-2.167c-1.852,0.357-5.844,9.028-8.261,14.672
							c-1.372,3.202,0.001,7.023,3.205,8.389c2.676,1.142,4.691-0.422,9.09-7.556c6.46,4.758,6.629-1.402,0.804-3.825
							C252.337,397.991,255.546,390.534,255.546,390.534z"/>
						<path style="fill:#FFFFFF;" d="M250.192,387.71c0,0-6.461,10.022-8.384,14.982c4.865,1.129,6.863,6.895,6.863,6.895
							l-5.034,3.46l-2.885-2.117c-2.451-1.798-3.317-5.061-2.081-7.839l6.635-14.908L250.192,387.71z"/>
					</g>
					
						<path style="clip-path:url(#SVGID_00000160897496973292305740000004193315938541538976_);fill:none;stroke:#961217;stroke-width:1.1339;stroke-miterlimit:10;" d="
						M246.416,405.716c0,0,3.427-5.011,5.563-5.669"/>
				</g>
				<polygon style="fill:#42568F;" points="282.377,378.371 270.278,387.654 280.365,403.453 295.431,391.331 				"/>
				
					<line style="fill:none;stroke:#FFFFFF;stroke-width:1.1339;stroke-miterlimit:10;" x1="278.217" y1="393.279" x2="293.864" y2="378.494"/>
				
					<line style="fill:none;stroke:#FFFFFF;stroke-width:1.1339;stroke-miterlimit:10;" x1="276.858" y1="390.71" x2="291.242" y2="377.154"/>
				
					<line style="fill:none;stroke:#202932;stroke-width:1.1339;stroke-miterlimit:10;" x1="273.218" y1="385.398" x2="283.217" y2="401.159"/>
				
					<line style="fill:none;stroke:#202932;stroke-width:1.1339;stroke-miterlimit:10;" x1="289.007" y1="396.5" x2="298.722" y2="388.297"/>
				<g>
					<g>
						<path style="fill:#FFCB06;" d="M343.258,368.95c4.708-4.771,1.45-7.039-1.102-5.655c1.918-4.049-0.157-6.161-3.223-4.599
							c1.284-6.691-4.31-4.823-6.63-2.566c-3.783-3.351-7.167,2.529-5.937,7.176C327.597,367.954,334.064,378.542,343.258,368.95z"
							/>
						
							<line style="fill:none;stroke:#D88829;stroke-width:1.1339;stroke-miterlimit:10;" x1="329.514" y1="359.487" x2="332.304" y2="356.13"/>
						
							<line style="fill:none;stroke:#D88829;stroke-width:1.1339;stroke-miterlimit:10;" x1="336.859" y1="361.077" x2="338.933" y2="358.696"/>
						
							<line style="fill:none;stroke:#D88829;stroke-width:1.1339;stroke-miterlimit:10;" x1="340.052" y1="365.607" x2="342.156" y2="363.294"/>
					</g>
					<path style="fill:#FFCB06;" d="M340.85,371.062c0,0-10.208,10.764-14.476,12.432c-4.268,1.668-18.983-12.331-19.915-13.253
						c-0.933-0.923,7.226-9.942,7.226-9.942l8.803,9.377l6.327-5.101L340.85,371.062z"/>
					
						<line style="fill:none;stroke:#D88829;stroke-width:1.1339;stroke-miterlimit:10;" x1="322.488" y1="369.675" x2="320.383" y2="371.4"/>
					<path style="fill:#8457ED;" d="M309.374,355.53c0.35,0.757,7.432,6.742,7.432,6.742l-7.9,11.275l-9.082-8.11"/>
					
						<line style="fill:none;stroke:#6643B8;stroke-width:1.1339;stroke-miterlimit:10;" x1="316.806" y1="362.272" x2="310.379" y2="356.615"/>
				</g>
				<polyline style="fill:none;stroke:#6643B8;stroke-width:1.1339;stroke-miterlimit:10;" points="300.138,368.452 307.173,373.95 
					310.075,371.879 				"/>
				<path style="fill:none;stroke:#6643B8;stroke-width:1.1339;stroke-miterlimit:10;" d="M301.571,352.939
					c0,0-8.772,0.308-14.464,11.113"/>
			</g>
			<path style="fill:#FFFFFF;" d="M252.158,394.755c0,1.071-0.868,1.94-1.94,1.94c-1.071,0-1.94-0.868-1.94-1.94
				s0.868-1.94,1.94-1.94C251.29,392.815,252.158,393.683,252.158,394.755z"/>
			<path style="fill:none;stroke:#D88829;stroke-width:1.1339;stroke-miterlimit:10;" d="M305.107,305.568
				c0,0,6.695-2.005,12.015-1.781"/>
			<path style="fill:none;stroke:#6643B8;stroke-width:1.1339;stroke-miterlimit:10;" d="M284.254,368.452
				c0,0,11.519,11.528,26.124,13.821"/>
			
				<line style="fill:none;stroke:#6643B8;stroke-width:1.1339;stroke-miterlimit:10;" x1="305.107" y1="372.336" x2="314.855" y2="360.604"/>
			
				<line style="fill:none;stroke:#6643B8;stroke-width:1.1339;stroke-miterlimit:10;" x1="285.326" y1="362.272" x2="289.948" y2="348.021"/>
		</g>
	</g>
	<g>
		<ellipse style="fill:#82BFEC;" cx="114.88" cy="432.052" rx="43.375" ry="3.109"/>
		<g>
			<g>
				<path style="fill:#FFCB06;" d="M129.419,315.193c0,0-70.472-14.899-65.06-35.304c5.412-20.405,72.572,24.662,77.366,32.691"/>
				<path style="fill:#FFCB06;" d="M115.133,319.179c0,0-71.744,6.404-72.549-14.691c-0.805-21.096,76.613,2.315,83.549,8.588"/>
				<path style="fill:none;stroke:#D88829;stroke-width:1.1339;stroke-miterlimit:10;" d="M119.22,316.376
					c-1.212,0.214-65.214-0.93-64.758-10.652c0.457-9.722,64.046,6.613,64.046,6.613"/>
			</g>
			<g>
				<g>
					<g>
						<path style="fill:#FFCB06;" d="M98.768,390.124c1.51,6.531,5.17,4.992,5.367,2.096c2.394,3.788,5.288,3.165,5.61-0.261
							c4.965,4.665,6.381-1.059,5.716-4.227c4.855-1.402,1.7-7.408-2.884-8.856C107.992,377.428,95.587,377.223,98.768,390.124z"/>
						
							<line style="fill:none;stroke:#D88829;stroke-width:1.1339;stroke-miterlimit:10;" x1="114.118" y1="383.579" x2="115.461" y2="387.732"/>
						
							<line style="fill:none;stroke:#D88829;stroke-width:1.1339;stroke-miterlimit:10;" x1="108.844" y1="388.932" x2="109.745" y2="391.959"/>
						
							<line style="fill:none;stroke:#D88829;stroke-width:1.1339;stroke-miterlimit:10;" x1="103.308" y1="389.204" x2="104.135" y2="392.22"/>
					</g>
					<path style="fill:#FFCB06;" d="M98.273,386.959c0,0-3.629-14.384-2.754-18.882s20.576-9.435,21.854-9.729
						c1.278-0.294,4.531,11.425,4.531,11.425l-12.632,2.418l0.923,8.075L98.273,386.959z"/>
					
						<line style="fill:none;stroke:#D88829;stroke-width:1.1339;stroke-miterlimit:10;" x1="109.272" y1="372.191" x2="108.942" y2="369.489"/>
					<path style="fill:#8457ED;" d="M128.24,368.684c-0.826-0.11-9.673,2.67-9.673,2.67l-5.296-12.708l11.712-3.331"/>
					
						<line style="fill:none;stroke:#6643B8;stroke-width:1.1339;stroke-miterlimit:10;" x1="118.567" y1="371.354" x2="126.786" y2="368.952"/>
				</g>
				<path style="fill:#E0B306;" d="M116.703,397.478l16.161,7.564l-7.01,5.431l8.429,5.724c0,0,11.494-4.662,12.125-11.779
					c0.63-7.117-16.974-15.475-16.974-15.475"/>
				<path style="fill:#2A385C;" d="M112.951,392.843c2.913,6.495,9.983,11.723,9.983,11.723l14.558-11.885l-14.329-7.026"/>
				<g>
					<defs>
						<path id="SVGID_20_" d="M130.536,406.213c0,0-6.017,1.736-7.724,3.962c-1.148,1.497,1.627,10.631,3.568,16.455
							c1.102,3.305,4.665,5.249,7.968,4.143c2.759-0.924,3.227-3.43,1.778-11.686c7.989-0.733,4.025-5.45-1.939-3.393
							C133.089,413.92,130.536,406.213,130.536,406.213z"/>
					</defs>
					<clipPath id="SVGID_00000139283780070931279580000012664042268868539277_">
						<use xlink:href="#SVGID_20_"  style="overflow:visible;"/>
					</clipPath>
					<g style="clip-path:url(#SVGID_00000139283780070931279580000012664042268868539277_);">
						<path style="fill:#AB2E3B;" d="M130.536,406.213c0,0-6.017,1.736-7.724,3.962c-1.148,1.497,1.627,10.631,3.568,16.455
							c1.102,3.305,4.665,5.249,7.968,4.143c2.759-0.924,3.227-3.43,1.778-11.686c7.989-0.733,4.025-5.45-1.939-3.393
							C133.089,413.92,130.536,406.213,130.536,406.213z"/>
						<path style="fill:#E8E8E8;" d="M124.657,407.658c0,0,1.826,11.783,3.682,16.769c4.387-2.387,9.711,0.597,9.711,0.597
							l-1.465,5.93l-3.563,0.333c-3.026,0.283-5.841-1.581-6.761-4.478l-4.94-15.553L124.657,407.658z"/>
					</g>
					
						<path style="clip-path:url(#SVGID_00000139283780070931279580000012664042268868539277_);fill:none;stroke:#961217;stroke-width:1.1339;stroke-miterlimit:10;" d="
						M133.793,423.627c0,0-0.766-6.023,0.394-7.933"/>
				</g>
				
					<line style="fill:none;stroke:#202932;stroke-width:1.1339;stroke-miterlimit:10;" x1="120.807" y1="402.805" x2="133.708" y2="390.895"/>
				<path style="fill:#FFCB06;" d="M132.444,353.218c-26.582-1.98-41.881-38.395,1.179-45.777
					c19.794-3.393,30.676,5.652,32.91,17.224c0.966,0.77,2.512,1.948,5.96,1.589C172.595,339.078,170.391,356.044,132.444,353.218z"
					/>
				<path style="fill:none;stroke:#D88829;stroke-width:1.1339;stroke-miterlimit:10;" d="M77.313,297.743
					c27.406,1.947,46.442,11.687,46.442,11.687s9.815-2.102,12.345-2.35"/>
				<g>
					<defs>
						<path id="SVGID_19_" d="M132.444,353.218c-26.582-1.98-41.881-38.395,1.179-45.777c19.794-3.393,30.676,5.652,32.91,17.224
							c0.966,0.77,2.512,1.948,5.96,1.589C172.595,339.078,170.391,356.044,132.444,353.218z"/>
					</defs>
					<clipPath id="SVGID_00000150809583684025571710000007133937413926451372_">
						<use xlink:href="#SVGID_19_"  style="overflow:visible;"/>
					</clipPath>
					
						<ellipse style="clip-path:url(#SVGID_00000150809583684025571710000007133937413926451372_);fill:#FFFFFF;" cx="169.148" cy="334.252" rx="7.638" ry="10.099"/>
				</g>
				<g>
					<defs>
						<ellipse id="SVGID_18_" cx="153.923" cy="325.486" rx="7.587" ry="10.662"/>
					</defs>
					<clipPath id="SVGID_00000023242291274693490100000004569024533732786317_">
						<use xlink:href="#SVGID_18_"  style="overflow:visible;"/>
					</clipPath>
					
						<ellipse style="clip-path:url(#SVGID_00000023242291274693490100000004569024533732786317_);fill:#FFFFFF;" cx="153.923" cy="325.486" rx="7.587" ry="10.662"/>
					
						<ellipse style="clip-path:url(#SVGID_00000023242291274693490100000004569024533732786317_);fill:#202932;" cx="160.856" cy="325.486" rx="7.587" ry="10.662"/>
				</g>
				<path style="fill:#202932;" d="M170.121,331.765c-0.66-0.677-2.253-3.781-1.712-5.293c0.405-1.133,5.083-0.164,5.453,0.449
					C174.681,328.279,173.12,331.765,170.121,331.765z"/>
				<path style="fill:none;stroke:#202932;stroke-width:1.1339;stroke-miterlimit:10;" d="M165.703,333.083
					c0.495,4.522,4.381,4.381,5.936,1.484"/>
				<path style="fill:none;stroke:#202932;stroke-width:1.1339;stroke-miterlimit:10;" d="M168.516,336.806
					c0,0,2.05-6.681,2.673-7.949"/>
				<polygon style="fill:#FFCB06;" points="128.415,349.585 125.776,359.384 137.582,361.268 144.437,352.176 				"/>
				<path style="fill:#8457ED;" d="M132.569,386.47c4.025-5.988,5.858-13.521,6.398-15.592c1.131-4.334,1.656-13.644-10.552-15.872
					c-8.082-1.475-16.832,8.151-21.682,17.362C113.531,379.912,122.634,384.081,132.569,386.47z"/>
				<path style="fill:#42568F;" d="M106.733,372.368c-3.743,7.11-3.886,14.699,3.592,19.05c10.824,6.298,17.845,1.598,22.244-4.948
					C122.634,384.081,113.531,379.912,106.733,372.368z"/>
				<path style="fill:none;stroke:#202932;stroke-width:1.1339;stroke-miterlimit:10;" d="M111.029,399.834
					c-1.49-3.038-3.047-6.751-4.087-10.264"/>
				
					<line style="fill:none;stroke:#202932;stroke-width:1.1339;stroke-miterlimit:10;" x1="128.505" y1="392.227" x2="126.499" y2="387.609"/>
				<g>
					<g>
						<path style="fill:#FFCB06;" d="M148.328,391.858c6.691-0.395,5.787-4.261,2.965-4.94c4.135-1.726,4.006-4.684,0.682-5.574
							c5.431-4.113,0.024-6.468-3.21-6.343c-0.569-5.021-7.019-2.916-9.214,1.361C137.355,380.639,135.077,392.835,148.328,391.858z
							"/>
						
							<line style="fill:none;stroke:#D88829;stroke-width:1.1339;stroke-miterlimit:10;" x1="144.445" y1="375.629" x2="148.764" y2="375"/>
						
							<line style="fill:none;stroke:#D88829;stroke-width:1.1339;stroke-miterlimit:10;" x1="148.84" y1="381.725" x2="151.975" y2="381.343"/>
						
							<line style="fill:none;stroke:#D88829;stroke-width:1.1339;stroke-miterlimit:10;" x1="148.181" y1="387.228" x2="151.293" y2="386.918"/>
					</g>
					<path style="fill:#FFCB06;" d="M145.125,391.816c0,0-14.789,1.169-19.077-0.446c-4.288-1.616-5.857-21.865-5.933-23.175
						c-0.076-1.31,12.022-2.554,12.022-2.554l0.268,12.859l8.115,0.442L145.125,391.816z"/>
					
						<line style="fill:none;stroke:#D88829;stroke-width:1.1339;stroke-miterlimit:10;" x1="132.406" y1="378.5" x2="129.688" y2="378.373"/>
					<path style="fill:#8457ED;" d="M132.125,359.213c-0.246,0.796,1.013,9.983,1.013,9.983l-13.415,3.093l-1.323-12.104"/>
					
						<line style="fill:none;stroke:#6643B8;stroke-width:1.1339;stroke-miterlimit:10;" x1="133.138" y1="369.196" x2="132.146" y2="360.691"/>
				</g>
				<g>
					<polygon style="fill:#FFCB06;" points="83.268,410.364 106.006,387.269 118.616,395.151 85.537,421.456 					"/>
					<polygon style="fill:#42568F;" points="105.884,383.758 95.332,394.767 107.696,408.856 120.751,394.591 					"/>
					
						<line style="fill:none;stroke:#FFFFFF;stroke-width:1.1339;stroke-miterlimit:10;" x1="103.308" y1="398.295" x2="117.897" y2="381.041"/>
					
						<line style="fill:none;stroke:#FFFFFF;stroke-width:1.1339;stroke-miterlimit:10;" x1="101.195" y1="395.874" x2="115.461" y2="379.63"/>
					
						<line style="fill:none;stroke:#202932;stroke-width:1.1339;stroke-miterlimit:10;" x1="97.896" y1="392.092" x2="110.167" y2="406.156"/>
				</g>
				<g>
					<defs>
						<path id="SVGID_17_" d="M85.637,408.078c0,0-6.169-1.076-8.679,0.178c-1.688,0.843-3.195,10.269-4.002,16.355
							c-0.458,3.454,1.893,6.763,5.347,7.216c2.885,0.378,4.404-1.67,6.718-9.726c7.503,2.841,6.006-3.136-0.257-3.9
							C84.556,416.124,85.637,408.078,85.637,408.078z"/>
					</defs>
					<clipPath id="SVGID_00000024719568634824435080000003916751131685148827_">
						<use xlink:href="#SVGID_17_"  style="overflow:visible;"/>
					</clipPath>
					<g style="clip-path:url(#SVGID_00000024719568634824435080000003916751131685148827_);">
						<path style="fill:#BA3240;" d="M85.637,408.078c0,0-6.169-1.076-8.679,0.178c-1.688,0.843-3.195,10.269-4.002,16.355
							c-0.458,3.454,1.893,6.763,5.347,7.216c2.885,0.378,4.404-1.67,6.718-9.726c7.503,2.841,6.006-3.136-0.257-3.9
							C84.556,416.124,85.637,408.078,85.637,408.078z"/>
						<path style="fill:#FFFFFF;" d="M79.72,406.801c0,0-3.521,11.392-4.036,16.687c4.99-0.224,8.467,4.791,8.467,4.791
							l-3.915,4.689l-3.349-1.262c-2.845-1.072-4.558-3.98-4.116-6.988l2.373-16.145L79.72,406.801z"/>
					</g>
					
						<path style="clip-path:url(#SVGID_00000024719568634824435080000003916751131685148827_);fill:none;stroke:#961217;stroke-width:1.1339;stroke-miterlimit:10;" d="
						M80.936,425.159c0,0,1.95-5.75,3.829-6.958"/>
				</g>
			</g>
			
				<line style="fill:none;stroke:#202932;stroke-width:1.1339;stroke-miterlimit:10;" x1="115.952" y1="399.834" x2="123.557" y2="391.913"/>
			
				<line style="fill:none;stroke:#6643B8;stroke-width:1.1339;stroke-miterlimit:10;" x1="119.723" y1="372.289" x2="118.917" y2="360.691"/>
			<path style="fill:none;stroke:#6643B8;stroke-width:1.1339;stroke-miterlimit:10;" d="M120.115,356.903
				c0,0-5.905,4.699-7.306,6.432"/>
			<circle style="fill:#FFFFFF;" cx="81.488" cy="413.923" r="1.94"/>
			
				<line style="fill:none;stroke:#6643B8;stroke-width:1.1339;stroke-miterlimit:10;" x1="119.385" y1="369.196" x2="132.822" y2="366.49"/>
			<path style="fill:none;stroke:#6643B8;stroke-width:1.1339;stroke-miterlimit:10;" d="M107.673,370.663
				c0,0,8.647,7.418,13.514,9.248"/>
		</g>
	</g>
	<g>
		<path style="fill:#82BFEC;" d="M691.251,237.455c0,1.717-19.42,3.109-43.375,3.109s-43.375-1.392-43.375-3.109
			c0-1.717,19.42-3.109,43.375-3.109S691.251,235.738,691.251,237.455z"/>
		<g>
			<g>
				<path style="fill:#FFCB06;" d="M665.734,116.521c0,0-66.814-26.91-57.941-46.065c8.873-19.156,67.187,36.889,70.514,45.629"/>
				<path style="fill:#FFCB06;" d="M650.973,117.965c0,0-71.766-6.151-68.896-27.066c2.871-20.915,75.047,15.584,80.788,22.965"/>
				<path style="fill:none;stroke:#D88829;stroke-width:1.1339;stroke-miterlimit:10;" d="M655.484,115.915
					c-1.23,0-64.062-12.24-61.924-21.735c2.138-9.495,61.924,17.634,61.924,17.634"/>
				<path style="fill:none;stroke:#D88829;stroke-width:1.1339;stroke-miterlimit:10;" d="M617.45,90.288
					c26.651,6.677,44.399,21.376,44.399,21.376"/>
			</g>
			<path style="fill:#E0B306;" d="M649.03,197.19l6.877,16.465l-8.841-0.693l2.39,9.904c0,0,11.643,4.278,16.895-0.566
				s-2.159-22.868-2.159-22.868"/>
			<path style="fill:#2A385C;" d="M646.455,194.089c0.459,7.104,5.917,15.886,5.917,15.886l17.794-6.045l-6.549-15.871"/>
			<g>
				<defs>
					<path id="SVGID_16_" d="M653.396,212.957c0,0-5.621-2.761-8.381-2.26c-1.856,0.336-5.944,8.963-8.423,14.579
						c-1.407,3.187-0.077,7.022,3.112,8.424c2.663,1.171,4.695-0.369,9.174-7.454c6.407,4.829,6.644-1.328,0.846-3.816
						C650.104,220.378,653.396,212.957,653.396,212.957z"/>
				</defs>
				<clipPath id="SVGID_00000088820983830190544630000014118754461410019724_">
					<use xlink:href="#SVGID_16_"  style="overflow:visible;"/>
				</clipPath>
				<g style="clip-path:url(#SVGID_00000088820983830190544630000014118754461410019724_);">
					<path style="fill:#AB2E3B;" d="M653.396,212.957c0,0-5.621-2.761-8.381-2.26c-1.856,0.336-5.944,8.963-8.423,14.579
						c-1.407,3.187-0.077,7.022,3.112,8.424c2.663,1.171,4.695-0.369,9.174-7.454c6.407,4.829,6.644-1.328,0.846-3.816
						C650.104,220.378,653.396,212.957,653.396,212.957z"/>
					<path style="fill:#E8E8E8;" d="M647.532,209.865c0,0-6.505,9.993-8.45,14.945c4.86,1.151,6.833,6.926,6.833,6.926l-5.049,3.438
						l-2.876-2.13c-2.443-1.809-3.294-5.076-2.046-7.848l6.702-14.879L647.532,209.865z"/>
				</g>
				
					<path style="clip-path:url(#SVGID_00000088820983830190544630000014118754461410019724_);fill:none;stroke:#961217;stroke-width:1.1339;stroke-miterlimit:10;" d="
					M644.098,228.037c0,0,3.483-4.973,5.625-5.607"/>
			</g>
			
				<line style="fill:none;stroke:#202932;stroke-width:1.1339;stroke-miterlimit:10;" x1="651.051" y1="208.218" x2="667.302" y2="201.571"/>
			<path style="fill:#FFCB06;" d="M665.788,156.36c-26.583-1.98-41.881-38.395,1.179-45.777c19.794-3.393,30.676,5.652,32.91,17.224
				c0.966,0.77,2.512,1.948,5.959,1.589C705.939,142.22,703.734,159.186,665.788,156.36z"/>
			<g>
				<defs>
					<path id="SVGID_15_" d="M665.788,156.36c-26.583-1.98-41.881-38.395,1.179-45.777c19.794-3.393,30.676,5.652,32.91,17.224
						c0.966,0.77,2.512,1.948,5.959,1.589C705.939,142.22,703.734,159.186,665.788,156.36z"/>
				</defs>
				<clipPath id="SVGID_00000035530720930068781600000000949036533039793286_">
					<use xlink:href="#SVGID_15_"  style="overflow:visible;"/>
				</clipPath>
				
					<ellipse style="clip-path:url(#SVGID_00000035530720930068781600000000949036533039793286_);fill:#FFFFFF;" cx="702.491" cy="137.393" rx="7.638" ry="10.099"/>
			</g>
			<g>
				<defs>
					<ellipse id="SVGID_14_" cx="687.266" cy="128.628" rx="7.587" ry="10.662"/>
				</defs>
				<clipPath id="SVGID_00000156578747571067408310000007160560757739568571_">
					<use xlink:href="#SVGID_14_"  style="overflow:visible;"/>
				</clipPath>
				
					<ellipse style="clip-path:url(#SVGID_00000156578747571067408310000007160560757739568571_);fill:#FFFFFF;" cx="687.266" cy="128.628" rx="7.587" ry="10.662"/>
				
					<ellipse style="clip-path:url(#SVGID_00000156578747571067408310000007160560757739568571_);fill:#202932;" cx="694.2" cy="128.628" rx="7.587" ry="10.662"/>
			</g>
			<path style="fill:#202932;" d="M703.465,134.907c-0.66-0.677-2.253-3.781-1.712-5.293c0.405-1.133,5.083-0.164,5.453,0.449
				C708.024,131.421,706.464,134.907,703.465,134.907z"/>
			<path style="fill:none;stroke:#202932;stroke-width:1.1339;stroke-miterlimit:10;" d="M699.047,136.225
				c0.495,4.522,4.381,4.381,5.936,1.484"/>
			<path style="fill:none;stroke:#202932;stroke-width:1.1339;stroke-miterlimit:10;" d="M701.859,139.948
				c0,0,2.05-6.681,2.673-7.949"/>
			<polygon style="fill:#FFCB06;" points="661.758,151.251 659.12,161.049 670.926,162.934 677.781,153.842 			"/>
			<path style="fill:#8457ED;" d="M665.913,188.135c4.025-5.988,5.858-13.521,6.398-15.592c1.131-4.334,1.656-13.644-10.552-15.872
				c-8.082-1.475-16.833,8.15-21.682,17.362C646.874,181.578,655.977,185.747,665.913,188.135z"/>
			<path style="fill:none;stroke:#6643B8;stroke-width:1.1339;stroke-miterlimit:10;" d="M641.299,171.85
				c0,0,4.648,5.165,7.618,6.719"/>
			<path style="fill:#42568F;" d="M640.076,174.034c-3.743,7.11-3.886,14.699,3.592,19.05c10.825,6.298,17.844,1.597,22.244-4.948
				C655.977,185.747,646.874,181.578,640.076,174.034z"/>
			<path style="fill:none;stroke:#202932;stroke-width:1.1339;stroke-miterlimit:10;" d="M644.372,201.5
				c-1.49-3.038-3.047-6.751-4.087-10.264"/>
			
				<line style="fill:none;stroke:#202932;stroke-width:1.1339;stroke-miterlimit:10;" x1="661.848" y1="193.893" x2="659.843" y2="189.274"/>
			<g>
				<polygon style="fill:#FFCB06;" points="619.903,215.203 639.739,189.574 653.196,195.903 623.472,225.948 				"/>
				<g>
					<g>
						<g id="XMLID_1_">
							<g>
								<path style="fill:#BA3240;" d="M629.669,230.251c3.71-0.86,6.229,4.295,2.966,6.35c-2.953,1.847-10.384,3.233-12.931-1.658
									c-2.828-5.445-7.241-12.454-6.457-14.161c1.174-2.556,6.654-5.582,6.654-5.582s4.198,6.953,5.662,8.443
									c5.362-3.331,10.267,0.393,2.64,2.873C628.954,228.308,629.249,228.971,629.669,230.251z"/>
							</g>
							<g>
							</g>
						</g>
					</g>
					<path style="fill:none;stroke:#961217;stroke-width:1.1339;stroke-miterlimit:10;" d="M628.05,231.587
						c0,0-3.194-5.827-2.487-7.947"/>
				</g>
				<polygon style="fill:#42568F;" points="639.202,186.102 630.03,198.285 643.979,210.807 655.249,195.093 				"/>
				
					<line style="fill:none;stroke:#FFFFFF;stroke-width:1.1339;stroke-miterlimit:10;" x1="637.164" y1="199.753" x2="648.566" y2="182.806"/>
				
					<line style="fill:none;stroke:#FFFFFF;stroke-width:1.1339;stroke-miterlimit:10;" x1="639.653" y1="201.001" x2="651.844" y2="183.591"/>
				
					<line style="fill:none;stroke:#202932;stroke-width:1.1339;stroke-miterlimit:10;" x1="632.259" y1="195.324" x2="646.112" y2="207.833"/>
				<g>
					<defs>
						<path id="SVGID_13_" d="M619.903,215.203c0,0-5.482,3.026-6.654,5.575c-0.787,1.714,3.626,8.72,6.46,14.167
							c2.543,4.887,9.976,3.507,12.926,1.654c3.266-2.051,0.745-7.206-2.966-6.346c-0.42-1.285-0.712-1.946-1.462-3.734
							c7.628-2.485,2.717-6.207-2.643-2.879C624.1,222.152,619.903,215.203,619.903,215.203z"/>
					</defs>
					<clipPath id="SVGID_00000165196161414408130570000012367488225080463757_">
						<use xlink:href="#SVGID_13_"  style="overflow:visible;"/>
					</clipPath>
					<path style="clip-path:url(#SVGID_00000165196161414408130570000012367488225080463757_);fill:#FFFFFF;" d="M614.447,217.802
						c0,0,6.562,13.993,9.86,17.383c2.543-2.924,4.213-4.562,6.2-5.338c1.987-0.775,4.795,0.882,4.911,1.058
						c0.116,0.176,1.263,4.214,0.576,4.818c-0.687,0.604-6.298,4.074-6.298,4.074l-8.08-1.312l-4.104-6.152l-5.497-11.062
						L614.447,217.802z"/>
				</g>
			</g>
			
				<line style="fill:none;stroke:#6643B8;stroke-width:1.1339;stroke-miterlimit:10;" x1="648.917" y1="171.356" x2="650.886" y2="161.935"/>
			
				<line style="fill:none;stroke:#202932;stroke-width:1.1339;stroke-miterlimit:10;" x1="648.566" y1="203.791" x2="655.249" y2="195.093"/>
			<path style="fill:#FFFFFF;" d="M622.565,221.134c0.127,1.064-0.632,2.029-1.696,2.156c-1.064,0.127-2.029-0.632-2.156-1.696
				c-0.127-1.064,0.632-2.029,1.696-2.156C621.472,219.311,622.438,220.07,622.565,221.134z"/>
			<g>
				<g>
					<path style="fill:#FFCB06;" d="M667.926,200.546c6.288,2.323,7.011-1.581,4.698-3.335c4.48,0.078,5.548-2.683,2.861-4.832
						c6.625-1.589,2.617-5.915-0.396-7.098c1.493-4.828-5.259-5.487-8.986-2.45C662.377,185.867,655.396,196.124,667.926,200.546z"
						/>
					
						<line style="fill:none;stroke:#D88829;stroke-width:1.1339;stroke-miterlimit:10;" x1="670.881" y1="184.123" x2="675.09" y2="185.281"/>
					
						<line style="fill:none;stroke:#D88829;stroke-width:1.1339;stroke-miterlimit:10;" x1="672.461" y1="191.47" x2="675.485" y2="192.378"/>
					
						<line style="fill:none;stroke:#D88829;stroke-width:1.1339;stroke-miterlimit:10;" x1="669.649" y1="196.247" x2="672.624" y2="197.211"/>
				</g>
				<path style="fill:#FFCB06;" d="M665.009,199.223c0,0-14.016-4.862-17.295-8.063c-3.279-3.201,3.408-22.378,3.864-23.608
					c0.456-1.23,12.037,2.484,12.037,2.484l-4.913,11.886l7.256,3.661L665.009,199.223z"/>
				
					<line style="fill:none;stroke:#D88829;stroke-width:1.1339;stroke-miterlimit:10;" x1="658.702" y1="181.922" x2="656.263" y2="180.716"/>
				<path style="fill:#8457ED;" d="M666.183,164.143c-0.545,0.631-3.078,9.551-3.078,9.551l-13.529-2.549l3.645-11.618"/>
				
					<line style="fill:none;stroke:#6643B8;stroke-width:1.1339;stroke-miterlimit:10;" x1="663.105" y1="173.694" x2="665.609" y2="165.505"/>
			</g>
			<path style="fill:none;stroke:#D88829;stroke-width:1.1339;stroke-miterlimit:10;" d="M673.973,109.862
				c0,0-6.726,0.127-12.125,1.802"/>
			
				<line style="fill:none;stroke:#6643B8;stroke-width:1.1339;stroke-miterlimit:10;" x1="649.576" y1="168.205" x2="663.82" y2="171.356"/>
		</g>
	</g>
	<g>
		<path style="fill:#82BFEC;" d="M513.763,237.455c0,1.717-19.42,3.109-43.375,3.109c-23.956,0-43.375-1.392-43.375-3.109
			c0-1.717,19.42-3.109,43.375-3.109C494.343,234.346,513.763,235.738,513.763,237.455z"/>
		<g>
			<g>
				<path style="fill:#FFCB06;" d="M484.568,123.175c0,0-61.126-38.103-49.062-55.427c12.064-17.324,59.761,47.996,61.519,57.18"/>
				<path style="fill:#FFCB06;" d="M469.78,122.034c0,0-69.608-18.52-63.149-38.619c6.459-20.099,71.201,28.379,75.573,36.645"/>
				<path style="fill:none;stroke:#D88829;stroke-width:1.1339;stroke-miterlimit:10;" d="M474.579,120.798
					c-1.212-0.214-60.964-23.178-57.209-32.158c3.754-8.979,57.921,28.119,57.921,28.119"/>
				<path style="fill:none;stroke:#D88829;stroke-width:1.1339;stroke-miterlimit:10;" d="M441.572,88.956
					c25.087,11.203,39.644,26.866,39.644,26.866"/>
			</g>
			<g>
				<g>
					<g>
						<path style="fill:#FFCB06;" d="M510.174,189.991c5.644-2.919,3.372-5.919,0.666-5.421c2.917-3.087,1.666-5.6-1.556-5.091
							c3.12-5.654-2.47-5.612-5.223-4.258c-2.427-4.13-7.203,0.177-7.457,4.727C496.349,184.498,499.071,195.94,510.174,189.991z"/>
						
							<line style="fill:none;stroke:#D88829;stroke-width:1.1339;stroke-miterlimit:10;" x1="508.264" y1="186.038" x2="510.84" y2="184.57"/>
					</g>
					<path style="fill:#FFCB06;" d="M507.383,191.188c0,0-12.943,7.669-16.975,6.053c-4.032-1.616-6.922-21.341-6.968-22.584
						c-0.046-1.243,11.444-2.183,11.444-2.183l0,12.192l3.553-2.857L507.383,191.188z"/>
					
						<line style="fill:none;stroke:#D88829;stroke-width:1.1339;stroke-miterlimit:10;" x1="494.885" y1="184.667" x2="490.618" y2="188.091"/>
					<path style="fill:#8457ED;" d="M494.606,163.73c-0.249,0.75,1.156,12.134,1.156,12.134l-12.775,2.666l-1.014-11.498"/>
				</g>
				<path style="fill:none;stroke:#D88829;stroke-width:1.1339;stroke-miterlimit:10;" d="M504.06,175.221
					c3.433,6.292,0.203,8.609-2.736,4.407c1.939,4.192,1.038,5.708-0.416,6.721"/>
				<path style="fill:none;stroke:#D88829;stroke-width:1.1339;stroke-miterlimit:10;" d="M510.974,189.543
					c-4.434,0.76-5.438-2.113-2.137-3.832c-5.085,1.67-5.852-2.757-3.624-4.202c2.228-1.445,4.07-2.031,4.07-2.031"/>
			</g>
			<path style="fill:#E0B306;" d="M461.991,190.297l0.173,16.622l-12.515-0.117l2.423,11.18c0,0,14.206,3.114,20.517-0.236
				c6.311-3.35,3.496-21.428,3.496-21.428"/>
			<path style="fill:#2A385C;" d="M460.852,182.735c-1.228,8.607-1.413,17.743-1.413,17.743l18.564,2.921l0.799-12.747"/>
			<g>
				<defs>
					<path id="SVGID_12_" d="M453.942,206.441c0,0-5.988-1.832-8.634-0.899c-1.779,0.627-4.443,9.794-5.998,15.733
						c-0.882,3.37,1.041,6.945,4.412,7.822c2.815,0.733,4.577-1.111,7.872-8.818c7.093,3.749,6.348-2.367,0.229-3.902
						C451.872,214.291,453.942,206.441,453.942,206.441z"/>
				</defs>
				<clipPath id="SVGID_00000064325892941345011050000012127138773365978770_">
					<use xlink:href="#SVGID_12_"  style="overflow:visible;"/>
				</clipPath>
				<g style="clip-path:url(#SVGID_00000064325892941345011050000012127138773365978770_);">
					<path style="fill:#AB2E3B;" d="M453.942,206.441c0,0-5.988-1.832-8.634-0.899c-2.646,0.933-7.25,20.755-7.25,20.755
						c7.055,3.856,8.515,5.726,13.536-6.018c7.093,3.749,6.348-2.367,0.229-3.902C451.872,214.291,453.942,206.441,453.942,206.441z
						"/>
					<path style="fill:#E8E8E8;" d="M448.228,204.441c0,0-4.906,10.868-6.073,16.058c4.979,0.396,7.808,5.803,7.808,5.803
						l-4.466,4.167l-7.775-4.092l5.745-20.745L448.228,204.441z"/>
				</g>
				
					<path style="clip-path:url(#SVGID_00000064325892941345011050000012127138773365978770_);fill:none;stroke:#961217;stroke-width:1.1339;stroke-miterlimit:10;" d="
					M447.16,222.807c0,0,2.648-5.464,4.662-6.43"/>
			</g>
			
				<line style="fill:none;stroke:#202932;stroke-width:1.1339;stroke-miterlimit:10;" x1="459.333" y1="197.718" x2="478.247" y2="199.526"/>
			<path style="fill:#FFCB06;" d="M487.911,159.662c-26.582-1.98-41.881-38.395,1.179-45.777
				c19.794-3.393,30.676,5.652,32.91,17.224c0.966,0.77,2.512,1.948,5.959,1.589C528.062,145.522,525.857,162.488,487.911,159.662z"
				/>
			<g>
				<defs>
					<path id="SVGID_11_" d="M487.911,159.662c-26.582-1.98-41.881-38.395,1.179-45.777c19.794-3.393,30.676,5.652,32.91,17.224
						c0.966,0.77,2.512,1.948,5.959,1.589C528.062,145.522,525.857,162.488,487.911,159.662z"/>
				</defs>
				<clipPath id="SVGID_00000146493282821447677780000003659726693019073680_">
					<use xlink:href="#SVGID_11_"  style="overflow:visible;"/>
				</clipPath>
				
					<ellipse style="clip-path:url(#SVGID_00000146493282821447677780000003659726693019073680_);fill:#FFFFFF;" cx="524.614" cy="140.695" rx="7.638" ry="10.099"/>
			</g>
			<g>
				<defs>
					<ellipse id="SVGID_10_" cx="509.39" cy="131.93" rx="7.587" ry="10.662"/>
				</defs>
				<clipPath id="SVGID_00000071558731266047499250000012982674432212798101_">
					<use xlink:href="#SVGID_10_"  style="overflow:visible;"/>
				</clipPath>
				
					<ellipse style="clip-path:url(#SVGID_00000071558731266047499250000012982674432212798101_);fill:#FFFFFF;" cx="509.39" cy="131.93" rx="7.587" ry="10.662"/>
				<path style="clip-path:url(#SVGID_00000071558731266047499250000012982674432212798101_);fill:#202932;" d="M523.91,131.93
					c0,5.889-3.397,10.662-7.587,10.662c-4.19,0-7.587-4.774-7.587-10.662s3.397-10.662,7.587-10.662
					C520.513,121.267,523.91,126.041,523.91,131.93z"/>
			</g>
			<path style="fill:#202932;" d="M525.588,138.209c-0.66-0.677-2.253-3.781-1.712-5.293c0.405-1.133,5.083-0.164,5.453,0.449
				C530.148,134.723,528.587,138.209,525.588,138.209z"/>
			<path style="fill:none;stroke:#202932;stroke-width:1.1339;stroke-miterlimit:10;" d="M521.17,139.527
				c0.495,4.522,4.381,4.381,5.936,1.484"/>
			<path style="fill:none;stroke:#202932;stroke-width:1.1339;stroke-miterlimit:10;" d="M523.982,143.25
				c0,0,2.05-6.681,2.673-7.949"/>
			<polygon style="fill:#FFCB06;" points="483.881,150.124 481.243,159.923 493.049,161.807 499.904,152.715 			"/>
			<path style="fill:#8457ED;" d="M488.036,187.009c4.025-5.988,5.858-13.521,6.398-15.592c1.131-4.334,1.656-13.644-10.552-15.872
				c-8.082-1.475-16.832,8.151-21.682,17.362C468.997,180.452,478.1,184.62,488.036,187.009z"/>
			<path style="fill:#42568F;" d="M462.2,172.907c-3.743,7.11-3.886,14.699,3.592,19.05c10.824,6.298,17.845,1.598,22.244-4.948
				C478.1,184.62,468.997,180.452,462.2,172.907z"/>
			<path style="fill:none;stroke:#6643B8;stroke-width:1.1339;stroke-miterlimit:10;" d="M492.179,178.731
				c1.878-4.464,1.807-13.707,1.807-13.707"/>
			<path style="fill:#FFCB06;" d="M466.848,195.292l7.716,14.723l-5.934,15.829l11.132,2.638c0,0,4.917-7.713,9.012-13.567
				c4.096-5.854-6.635-20.672-6.635-20.672"/>
			<path style="fill:#42568F;" d="M462.409,189.029c2.047,7.711,6.799,16.491,6.799,16.491l17.861-5.844l-5.087-11.715"/>
			
				<line style="fill:none;stroke:#FFFFFF;stroke-width:1.1339;stroke-miterlimit:10;" x1="468.935" y1="187.009" x2="474.301" y2="200.247"/>
			
				<line style="fill:none;stroke:#FFFFFF;stroke-width:1.1339;stroke-miterlimit:10;" x1="470.961" y1="186.727" x2="476.263" y2="199.613"/>
			<path style="fill:none;stroke:#202932;stroke-width:1.1339;stroke-miterlimit:10;" d="M467.666,202.478
				c-1.49-3.038-4.217-8.856-5.257-12.368"/>
			<g>
				<defs>
					<path id="SVGID_9_" d="M468.663,224.597c0,0-1.42,6.099-0.309,8.675c0.747,1.732,10.073,3.766,16.105,4.913
						c3.422,0.651,6.858-1.511,7.504-4.934c0.539-2.859-1.42-4.49-9.334-7.253c3.258-7.332-2.794-6.173-3.908,0.038
						C476.636,226.128,468.663,224.597,468.663,224.597z"/>
				</defs>
				<clipPath id="SVGID_00000145026978259406163480000001755931056926981012_">
					<use xlink:href="#SVGID_9_"  style="overflow:visible;"/>
				</clipPath>
				<g style="clip-path:url(#SVGID_00000145026978259406163480000001755931056926981012_);">
					<path style="fill:#BA3240;" d="M468.663,224.597c0,0-1.42,6.099-0.309,8.675c1.111,2.576,21.201,5.82,21.201,5.82
						c3.367-7.301,5.133-8.885-6.925-13.095c3.258-7.332-2.794-6.173-3.908,0.038C476.636,226.128,468.663,224.597,468.663,224.597z
						"/>
					<path style="fill:#FFFFFF;" d="M467.056,230.433c0,0,11.177,4.155,16.434,4.966c0.057-4.994,5.258-8.185,5.258-8.185
						l4.461,4.172l-3.553,8.036l-21.088-4.32L467.056,230.433z"/>
				</g>
				
					<path style="clip-path:url(#SVGID_00000145026978259406163480000001755931056926981012_);fill:none;stroke:#961217;stroke-width:1.1339;stroke-miterlimit:10;" d="
					M485.453,230.249c0,0-5.631-2.27-6.733-4.214"/>
			</g>
			
				<line style="fill:none;stroke:#202932;stroke-width:1.1339;stroke-miterlimit:10;" x1="467.857" y1="203.11" x2="485.523" y2="196.115"/>
			
				<line style="fill:none;stroke:#202932;stroke-width:1.1339;stroke-miterlimit:10;" x1="483.972" y1="192.766" x2="481.966" y2="188.148"/>
			<g>
				<g>
					<path style="fill:#FFCB06;" d="M481.119,196.603c6.094,2.79,7.11-1.048,4.936-2.972c4.461,0.416,5.735-2.257,3.217-4.603
						c6.726-1.085,3.056-5.701,0.141-7.107c1.853-4.701-4.83-5.868-8.776-3.121C476.692,181.547,468.958,191.249,481.119,196.603z"
						/>
					<path style="fill:none;stroke:#D88829;stroke-width:1.1339;stroke-miterlimit:10;" d="M485.304,180.449l4.109,1.472
						c0,0,2.944,0.971,3.67,3.383c0.725,2.412-1.423,3.907-3.811,3.725l-2.947-1.134"/>
					<path style="fill:none;stroke:#D88829;stroke-width:1.1339;stroke-miterlimit:10;" d="M483.161,192.446l2.894,1.185
						c2.104,0.792,5.806,0.393,4.236-4.245"/>
				</g>
				<path style="fill:#FFCB06;" d="M478.31,195.064c0,0-15.615-7.505-17.395-11.728c-1.78-4.222,11.827-19.301,12.724-20.257
					c0.898-0.957,10.129,6.962,10.129,6.962l-9.142,9.047l5.658,2.447L478.31,195.064z"/>
				
					<line style="fill:none;stroke:#D88829;stroke-width:1.1339;stroke-miterlimit:10;" x1="474.627" y1="179.087" x2="472.847" y2="177.029"/>
				<path style="fill:#8457ED;" d="M488.422,165.606c-0.747,0.369-6.544,7.607-6.544,7.607l-11.479-7.6l7.868-9.292"/>
				
					<line style="fill:none;stroke:#6643B8;stroke-width:1.1339;stroke-miterlimit:10;" x1="481.878" y1="173.213" x2="487.364" y2="166.639"/>
			</g>
			
				<line style="fill:none;stroke:#6643B8;stroke-width:1.1339;stroke-miterlimit:10;" x1="470.399" y1="165.613" x2="477.539" y2="157.181"/>
			<path style="fill:#FFFFFF;" d="M475.49,227.997c0.268,1.037-0.356,2.095-1.394,2.363c-1.037,0.268-2.095-0.356-2.363-1.394
				s0.356-2.095,1.394-2.363C474.164,226.336,475.222,226.96,475.49,227.997z"/>
			
				<line style="fill:none;stroke:#D88829;stroke-width:1.1339;stroke-miterlimit:10;" x1="481.217" y1="115.822" x2="490.983" y2="113.596"/>
			
				<line style="fill:none;stroke:#6643B8;stroke-width:1.1339;stroke-miterlimit:10;" x1="472.261" y1="163.73" x2="483.161" y2="171.13"/>
			
				<line style="fill:none;stroke:#6643B8;stroke-width:1.1339;stroke-miterlimit:10;" x1="493.433" y1="173.556" x2="495.412" y2="173.556"/>
		</g>
	</g>
	<g>
		<path style="fill:#82BFEC;" d="M336.378,237.455c0,1.717-19.42,3.109-43.375,3.109c-23.956,0-43.375-1.392-43.375-3.109
			c0-1.717,19.42-3.109,43.375-3.109C316.959,234.346,336.378,235.738,336.378,237.455z"/>
		<g>
			<g>
				<path style="fill:#FFCB06;" d="M311.559,116.254c0,0-66.814-26.91-57.941-46.065c8.873-19.156,67.187,36.889,70.514,45.629"/>
				<path style="fill:#FFCB06;" d="M296.798,117.699c0,0-71.766-6.151-68.896-27.066c2.871-20.915,75.047,15.584,80.789,22.965"/>
				<path style="fill:none;stroke:#D88829;stroke-width:1.1339;stroke-miterlimit:10;" d="M301.309,115.648
					c-1.23,0-64.062-12.24-61.924-21.735s61.924,17.634,61.924,17.634"/>
				<path style="fill:none;stroke:#D88829;stroke-width:1.1339;stroke-miterlimit:10;" d="M263.275,90.022
					c26.651,6.677,45.416,21.127,45.416,21.127"/>
			</g>
			<path style="fill:#E0B306;" d="M258.134,196.357l14.202,0.575l15.343-11.301l11.271,9.701c0,0-16.066,11.634-22.397,12.964
				c-6.174,1.297-25.08-2.784-25.08-2.784L258.134,196.357z"/>
			<g>
				<defs>
					<path id="SVGID_8_" d="M258.134,196.357c0,0-5.651-2.698-8.406-2.167c-1.852,0.357-5.844,9.028-8.261,14.672
						c-1.372,3.202,0.001,7.023,3.205,8.39c2.676,1.141,4.691-0.422,9.09-7.556c6.46,4.758,6.629-1.402,0.804-3.825
						C254.925,203.815,258.134,196.357,258.134,196.357z"/>
				</defs>
				<clipPath id="SVGID_00000157989173086067400190000007783473479221405882_">
					<use xlink:href="#SVGID_8_"  style="overflow:visible;"/>
				</clipPath>
				<g style="clip-path:url(#SVGID_00000157989173086067400190000007783473479221405882_);">
					<path style="fill:#AB2E3B;" d="M258.134,196.357c0,0-5.651-2.698-8.406-2.167c-1.852,0.357-5.844,9.028-8.261,14.672
						c-1.372,3.202,0.001,7.023,3.205,8.39c2.676,1.141,4.691-0.422,9.09-7.556c6.46,4.758,6.629-1.402,0.804-3.825
						C254.925,203.815,258.134,196.357,258.134,196.357z"/>
					<path style="fill:#E8E8E8;" d="M252.78,193.533c0,0-6.461,10.022-8.384,14.982c4.865,1.129,6.863,6.895,6.863,6.895
						l-5.034,3.46l-2.885-2.117c-2.451-1.798-3.317-5.061-2.081-7.838l6.635-14.908L252.78,193.533z"/>
				</g>
				
					<path style="clip-path:url(#SVGID_00000157989173086067400190000007783473479221405882_);fill:none;stroke:#961217;stroke-width:1.1339;stroke-miterlimit:10;" d="
					M249.004,211.54c0,0,3.427-5.011,5.563-5.669"/>
			</g>
			<polygon style="fill:#2A385C;" points="284.964,184.195 272.866,193.478 282.953,209.277 298.018,197.154 			"/>
			
				<line style="fill:none;stroke:#202932;stroke-width:1.1339;stroke-miterlimit:10;" x1="275.806" y1="191.222" x2="285.804" y2="206.983"/>
			<g>
				<g>
					<path style="fill:#FFCB06;" d="M292.296,197.436l15.9,10.172l3.945,17.943l10.148-3.89c0,0-0.404-7.595-1.223-15.806
						c-0.709-7.109-15.031-15.214-15.031-15.214"/>
					<g>
						<defs>
							<path id="SVGID_7_" d="M311.095,220.844c0,0,0.561,6.237,2.422,8.336c1.251,1.411,10.746,0.423,16.833-0.376
								c3.454-0.453,6.04-3.582,5.582-7.036c-0.383-2.884-2.755-3.82-11.135-3.966c0.799-7.983-4.586-4.988-3.7,1.259
								C319.146,219.801,311.095,220.844,311.095,220.844z"/>
						</defs>
						<clipPath id="SVGID_00000118387217568547117880000004624540629535931296_">
							<use xlink:href="#SVGID_7_"  style="overflow:visible;"/>
						</clipPath>
						<g style="clip-path:url(#SVGID_00000118387217568547117880000004624540629535931296_);">
							<path style="fill:#BA3240;" d="M311.095,220.844c0,0,0.561,6.237,2.422,8.336c1.861,2.099,21.957-1.109,21.957-1.109
								c0.912-7.988,2.094-10.045-10.677-10.268c0.799-7.983-4.586-4.988-3.7,1.259
								C319.146,219.801,311.095,220.844,311.095,220.844z"/>
							<path style="fill:#FFFFFF;" d="M311.396,226.89c0,0,11.915,0.447,17.163-0.428c-1.51-4.761,2.431-9.42,2.431-9.42
								l5.543,2.565l-0.859,8.744l-21.38,2.499L311.396,226.89z"/>
						</g>
						
							<path style="clip-path:url(#SVGID_00000118387217568547117880000004624540629535931296_);fill:none;stroke:#961217;stroke-width:1.1339;stroke-miterlimit:10;" d="
							M328.81,220.955c0,0-6.059-0.393-7.714-1.894"/>
					</g>
				</g>
				<g>
					<g>
						<g>
							<path style="fill:#FFCB06;" d="M346.052,167.797c1.331-6.213-2.429-6.365-3.763-3.958c-0.531-4.214-3.266-4.844-4.92-2.033
								c-2.384-6.002-5.903-1.658-6.607,1.329c-4.731-0.75-4.439,5.675-1.087,8.762C333.027,174.984,343.593,180.15,346.052,167.797
								z"/>
							
								<line style="fill:none;stroke:#D88829;stroke-width:1.1339;stroke-miterlimit:10;" x1="341.786" y1="166.76" x2="342.289" y2="163.839"/>
						</g>
						<path style="fill:#FFCB06;" d="M345.204,170.712c0,0-2.3,14.868-6.11,16.955s-20.878-8.213-21.867-8.967
							c-0.989-0.754,5.585-10.225,5.585-10.225l9.415,7.745l0.051-4.559L345.204,170.712z"/>
						
							<line style="fill:none;stroke:#D88829;stroke-width:1.1339;stroke-miterlimit:10;" x1="332.227" y1="176.221" x2="332.161" y2="181.692"/>
						<path style="fill:#8457ED;" d="M315.882,163.134c0.421,0.669,10.105,6.816,10.105,6.816l-6.057,11.56l-9.524-6.521"/>
					</g>
					<path style="fill:none;stroke:#D88829;stroke-width:1.1339;stroke-miterlimit:10;" d="M330.762,163.134
						c7.04,1.346,6.778,5.313,1.665,4.913c4.469,1.166,5.067,2.825,4.926,4.592"/>
					<path style="fill:none;stroke:#D88829;stroke-width:1.1339;stroke-miterlimit:10;" d="M346.215,166.895
						c-2.23,3.907-5.087,2.857-4.317-0.784c-1.941,4.987-5.847,2.768-5.547,0.129c0.3-2.639,1.018-4.433,1.018-4.433"/>
				</g>
				<path style="fill:#FFCB06;" d="M311.613,156.094c-26.583-1.98-41.881-38.395,1.179-45.777
					c19.794-3.393,30.676,5.652,32.91,17.224c0.966,0.77,2.512,1.948,5.959,1.589C351.764,141.954,349.559,158.919,311.613,156.094z
					"/>
				<g>
					<defs>
						<path id="SVGID_6_" d="M311.613,156.094c-26.583-1.98-41.881-38.395,1.179-45.777c19.794-3.393,30.676,5.652,32.91,17.224
							c0.966,0.77,2.512,1.948,5.959,1.589C351.764,141.954,349.559,158.919,311.613,156.094z"/>
					</defs>
					<clipPath id="SVGID_00000103261330062090832040000008627911559296551333_">
						<use xlink:href="#SVGID_6_"  style="overflow:visible;"/>
					</clipPath>
					
						<ellipse style="clip-path:url(#SVGID_00000103261330062090832040000008627911559296551333_);fill:#FFFFFF;" cx="348.316" cy="137.127" rx="7.638" ry="10.099"/>
				</g>
				<g>
					<defs>
						<ellipse id="SVGID_5_" cx="333.092" cy="128.361" rx="7.587" ry="10.663"/>
					</defs>
					<clipPath id="SVGID_00000041259967750597204760000011923118440314900410_">
						<use xlink:href="#SVGID_5_"  style="overflow:visible;"/>
					</clipPath>
					
						<ellipse style="clip-path:url(#SVGID_00000041259967750597204760000011923118440314900410_);fill:#FFFFFF;" cx="333.092" cy="128.361" rx="7.587" ry="10.663"/>
					
						<ellipse style="clip-path:url(#SVGID_00000041259967750597204760000011923118440314900410_);fill:#202932;" cx="340.025" cy="128.361" rx="7.587" ry="10.663"/>
				</g>
				<path style="fill:#202932;" d="M349.29,134.641c-0.66-0.677-2.253-3.781-1.712-5.293c0.405-1.133,5.083-0.164,5.453,0.449
					C353.85,131.154,352.289,134.641,349.29,134.641z"/>
				<path style="fill:none;stroke:#202932;stroke-width:1.1339;stroke-miterlimit:10;" d="M344.872,135.958
					c0.495,4.522,4.381,4.381,5.936,1.484"/>
				<path style="fill:none;stroke:#202932;stroke-width:1.1339;stroke-miterlimit:10;" d="M347.684,139.681
					c0,0,2.05-6.681,2.673-7.949"/>
				<polygon style="fill:#FFCB06;" points="307.583,153.198 304.945,162.997 316.751,164.881 323.606,155.79 				"/>
				<path style="fill:#8457ED;" d="M311.738,190.083c4.025-5.988,5.858-13.521,6.398-15.591c1.131-4.334,1.656-13.644-10.552-15.872
					c-8.082-1.475-16.832,8.15-21.682,17.362C292.699,183.526,301.802,187.694,311.738,190.083z"/>
				<path style="fill:#42568F;" d="M285.902,175.981c-3.743,7.11-4.116,16.206,3.362,20.556c10.824,6.298,18.074,0.091,22.474-6.455
					C301.802,187.694,292.699,183.526,285.902,175.981z"/>
				<g>
					<g>
						<path style="fill:#FFCB06;" d="M267.236,177.114c-1.731,6.476,2.223,6.834,3.756,4.369c0.337,4.468,3.185,5.276,5.077,2.401
							c2.195,6.449,6.132,2.059,7.031-1.051c4.945,1.04,4.977-5.744,1.608-9.174C281.339,170.229,270.479,164.229,267.236,177.114z"
							/>
						
							<line style="fill:none;stroke:#D88829;stroke-width:1.1339;stroke-miterlimit:10;" x1="283.863" y1="178.536" x2="283.1" y2="182.833"/>
						
							<line style="fill:none;stroke:#D88829;stroke-width:1.1339;stroke-miterlimit:10;" x1="276.693" y1="180.789" x2="276.069" y2="183.884"/>
						
							<line style="fill:none;stroke:#D88829;stroke-width:1.1339;stroke-miterlimit:10;" x1="271.677" y1="178.432" x2="270.993" y2="181.483"/>
					</g>
					<path style="fill:#FFCB06;" d="M268.284,174.087c0,0,3.544-14.406,6.427-17.967c2.883-3.561,22.597,1.321,23.864,1.661
						c1.267,0.34-1.359,12.215-1.359,12.215l-12.29-3.792l-2.973,7.564L268.284,174.087z"/>
					
						<line style="fill:none;stroke:#D88829;stroke-width:1.1339;stroke-miterlimit:10;" x1="284.926" y1="166.205" x2="285.902" y2="163.665"/>
					<path style="fill:#8457ED;" d="M303.322,172.007c-0.678-0.484-9.795-2.18-9.795-2.18l1.285-13.707l11.906,2.553"/>
					
						<line style="fill:none;stroke:#6643B8;stroke-width:1.1339;stroke-miterlimit:10;" x1="293.527" y1="169.827" x2="301.912" y2="171.562"/>
				</g>
				<path style="fill:none;stroke:#6643B8;stroke-width:1.1339;stroke-miterlimit:10;" d="M315.882,181.805
					c1.877-4.464,1.807-13.707,1.807-13.707"/>
				<path style="fill:#42568F;" d="M288.132,194.496c3.058,6.428,10.242,11.497,10.242,11.497l14.289-12.206l-14.482-6.705"/>
				<path style="fill:none;stroke:#FFFFFF;stroke-width:1.1339;stroke-miterlimit:10;" d="M292.963,181.483
					c0,0-3.58,9.739,8.677,17.366"/>
				<path style="fill:none;stroke:#FFFFFF;stroke-width:1.1339;stroke-miterlimit:10;" d="M295.036,182.337
					c0,0-1.536,8.305,8.4,14.61"/>
				<path style="fill:none;stroke:#202932;stroke-width:1.1339;stroke-miterlimit:10;" d="M291.744,199.785
					c-5.576-4.931-9.293-9.193-8.649-13.669"/>
				
					<line style="fill:none;stroke:#202932;stroke-width:1.1339;stroke-miterlimit:10;" x1="296.207" y1="204.28" x2="308.84" y2="192.085"/>
			</g>
			<path style="fill:#FFFFFF;" d="M318.725,223.375c0,1.071-0.869,1.94-1.94,1.94c-1.071,0-1.94-0.869-1.94-1.94
				c0-1.071,0.868-1.94,1.94-1.94C317.856,221.436,318.725,222.304,318.725,223.375z"/>
			<path style="fill:none;stroke:#D88829;stroke-width:1.1339;stroke-miterlimit:10;" d="M319.71,109.611
				c1.896-0.006-11.019,1.537-11.019,1.537"/>
			
				<line style="fill:none;stroke:#6643B8;stroke-width:1.1339;stroke-miterlimit:10;" x1="297.72" y1="157.144" x2="296.207" y2="170.342"/>
			<path style="fill:none;stroke:#6643B8;stroke-width:1.1339;stroke-miterlimit:10;" d="M286.842,174.276
				c0,0,10.848,12.352,25.821,13.669"/>
			
				<line style="fill:none;stroke:#6643B8;stroke-width:1.1339;stroke-miterlimit:10;" x1="318.682" y1="179.624" x2="324.131" y2="168.764"/>
		</g>
	</g>
	<g>
		<path style="fill:#82BFEC;" d="M159.448,237.455c0,1.717-19.42,3.109-43.375,3.109c-23.955,0-43.375-1.392-43.375-3.109
			c0-1.717,19.42-3.109,43.375-3.109C140.029,234.346,159.448,235.738,159.448,237.455z"/>
		<g>
			<g>
				<path style="fill:#FFCB06;" d="M132.006,120.799c0,0-70.472-14.899-65.06-35.304c5.412-20.406,72.572,24.662,77.366,32.691"/>
				<path style="fill:#FFCB06;" d="M117.721,124.785c0,0-71.744,6.404-72.549-14.691c-0.805-21.096,76.613,2.315,83.549,8.588"/>
				<path style="fill:none;stroke:#D88829;stroke-width:1.1339;stroke-miterlimit:10;" d="M121.807,121.982
					c-1.212,0.214-65.215-0.93-64.758-10.652c0.457-9.722,64.046,6.613,64.046,6.613"/>
			</g>
			<g>
				<g>
					<g>
						<path style="fill:#FFCB06;" d="M162.308,187.334c4.706-4.269,1.741-6.586-0.747-5.41c2.028-3.732,0.174-5.84-2.81-4.521
							c1.565-6.265-3.826-4.791-6.14-2.776c-3.405-3.37-6.916,2.018-5.995,6.482C147.537,185.572,153.104,195.932,162.308,187.334z"
							/>
						
							<line style="fill:none;stroke:#D88829;stroke-width:1.1339;stroke-miterlimit:10;" x1="159.448" y1="184.003" x2="161.561" y2="181.924"/>
					</g>
					<path style="fill:#FFCB06;" d="M159.918,189.207c0,0-10.543,10.733-14.854,10.205c-4.311-0.528-12.164-18.852-12.528-20.041
						c-0.363-1.189,10.502-5.046,10.502-5.046l3.127,11.784l2.701-3.673L159.918,189.207z"/>
					
						<line style="fill:none;stroke:#D88829;stroke-width:1.1339;stroke-miterlimit:10;" x1="146.166" y1="186.11" x2="142.92" y2="190.514"/>
					<path style="fill:#8457ED;" d="M141.587,168.408c-0.049,0.789,3.169,8.969,3.169,8.969l-11.664,5.854l-3.93-10.853"/>
				</g>
				<path style="fill:none;stroke:#D88829;stroke-width:1.1339;stroke-miterlimit:10;" d="M152.611,174.627
					c4.932,5.201,2.405,8.269-1.514,4.961c2.949,3.555,2.467,5.251,1.322,6.603"/>
				<path style="fill:none;stroke:#D88829;stroke-width:1.1339;stroke-miterlimit:10;" d="M162.967,186.697
					c-4.091,1.872-5.798-0.648-3.049-3.156c-4.486,2.918-6.363-1.163-4.58-3.132c1.783-1.968,3.413-3.007,3.413-3.007"/>
			</g>
			<polygon style="fill:#E0B306;" points="84.969,213.73 110.486,188.132 123.096,196.014 87.238,224.822 			"/>
			<path style="fill:#FFCB06;" d="M135.031,158.824c-26.582-1.979-41.881-38.395,1.179-45.777
				c19.794-3.393,30.676,5.652,32.91,17.224c0.966,0.77,2.512,1.948,5.959,1.589C175.183,144.684,172.978,161.65,135.031,158.824z"
				/>
			<path style="fill:none;stroke:#D88829;stroke-width:1.1339;stroke-miterlimit:10;" d="M79.901,103.349
				c27.406,1.947,46.442,11.687,46.442,11.687s10.028-2.748,14.764-2.71"/>
			<g>
				<defs>
					<path id="SVGID_4_" d="M135.031,158.824c-26.582-1.979-41.881-38.395,1.179-45.777c19.794-3.393,30.676,5.652,32.91,17.224
						c0.966,0.77,2.512,1.948,5.959,1.589C175.183,144.684,172.978,161.65,135.031,158.824z"/>
				</defs>
				<clipPath id="SVGID_00000125574650459764858210000016950811348453178515_">
					<use xlink:href="#SVGID_4_"  style="overflow:visible;"/>
				</clipPath>
				
					<ellipse style="clip-path:url(#SVGID_00000125574650459764858210000016950811348453178515_);fill:#FFFFFF;" cx="171.735" cy="139.857" rx="7.638" ry="10.099"/>
			</g>
			<g>
				<defs>
					<ellipse id="SVGID_3_" cx="156.51" cy="131.092" rx="7.587" ry="10.663"/>
				</defs>
				<clipPath id="SVGID_00000083069944902675935120000008664278802223701676_">
					<use xlink:href="#SVGID_3_"  style="overflow:visible;"/>
				</clipPath>
				
					<ellipse style="clip-path:url(#SVGID_00000083069944902675935120000008664278802223701676_);fill:#FFFFFF;" cx="156.51" cy="131.092" rx="7.587" ry="10.663"/>
				
					<ellipse style="clip-path:url(#SVGID_00000083069944902675935120000008664278802223701676_);fill:#202932;" cx="163.443" cy="131.092" rx="7.587" ry="10.663"/>
			</g>
			<path style="fill:#202932;" d="M172.709,137.371c-0.66-0.677-2.253-3.781-1.712-5.293c0.405-1.133,5.083-0.164,5.453,0.449
				C177.268,133.885,175.708,137.371,172.709,137.371z"/>
			<path style="fill:none;stroke:#202932;stroke-width:1.1339;stroke-miterlimit:10;" d="M168.29,138.689
				c0.495,4.523,4.381,4.381,5.936,1.484"/>
			<path style="fill:none;stroke:#202932;stroke-width:1.1339;stroke-miterlimit:10;" d="M171.103,142.412
				c0,0,2.05-6.681,2.673-7.949"/>
			<polygon style="fill:#FFCB06;" points="131.002,155.191 128.364,164.99 140.169,166.874 147.024,157.782 			"/>
			<path style="fill:#8457ED;" d="M135.156,192.076c4.025-5.988,5.858-13.521,6.398-15.592c1.131-4.334,1.656-13.644-10.552-15.872
				c-8.082-1.475-16.832,8.151-21.682,17.362C116.118,185.518,125.221,189.687,135.156,192.076z"/>
			<path style="fill:#42568F;" d="M109.32,177.974c-3.743,7.11-3.886,14.699,3.592,19.05c10.825,6.298,17.845,1.598,22.244-4.948
				C125.221,189.687,116.118,185.518,109.32,177.974z"/>
			<g>
				<defs>
					<path id="SVGID_2_" d="M84.969,213.73c0,0-5.803,2.354-7.268,4.746c-0.985,1.608,2.727,10.403,5.265,15.993
						c1.44,3.172,5.187,4.734,8.357,3.29c2.647-1.206,2.852-3.748,0.55-11.808c7.869-1.562,3.435-5.84-2.283-3.173
						C88.312,221.128,84.969,213.73,84.969,213.73z"/>
				</defs>
				<clipPath id="SVGID_00000088099530801955641380000001648353253983390647_">
					<use xlink:href="#SVGID_2_"  style="overflow:visible;"/>
				</clipPath>
				<g style="clip-path:url(#SVGID_00000088099530801955641380000001648353253983390647_);">
					<path style="fill:#AB2E3B;" d="M84.969,213.73c0,0-5.803,2.354-7.268,4.746c-0.985,1.608,2.727,10.403,5.265,15.993
						c1.44,3.172,5.187,4.734,8.357,3.29c2.647-1.206,2.852-3.748,0.55-11.808c7.869-1.562,3.435-5.84-2.283-3.173
						C88.312,221.128,84.969,213.73,84.969,213.73z"/>
					<path style="fill:#E8E8E8;" d="M79.273,215.779c0,0,3.045,11.529,5.411,16.293c4.114-2.831,9.72-0.419,9.72-0.419l-0.839,6.05
						l-3.509,0.703c-2.98,0.597-5.974-0.963-7.192-3.749l-6.535-14.952L79.273,215.779z"/>
				</g>
				
					<path style="clip-path:url(#SVGID_00000088099530801955641380000001648353253983390647_);fill:none;stroke:#961217;stroke-width:1.1339;stroke-miterlimit:10;" d="
					M90.025,230.709c0,0-1.39-5.91-0.436-7.931"/>
			</g>
			<polygon style="fill:#2A385C;" points="107.585,187.124 97.033,198.133 109.397,212.221 122.452,197.956 			"/>
			<path style="fill:none;stroke:#6643B8;stroke-width:1.1339;stroke-miterlimit:10;" d="M139.3,183.798
				c1.877-4.464,1.807-13.707,1.807-13.707"/>
			
				<line style="fill:none;stroke:#202932;stroke-width:1.1339;stroke-miterlimit:10;" x1="99.597" y1="195.458" x2="111.868" y2="209.521"/>
			<path style="fill:#FFCB06;" d="M120.012,200.634l17.797,1.293l-4.608,7.577l9.917,2.336c0,0,9.071-8.46,7.118-15.333
				c-1.953-6.873-21.382-8.392-21.382-8.392"/>
			<path style="fill:#42568F;" d="M121.824,187.284l15.893,1.445l-9.352,16.3c0,0-9.576-2.866-15.167-7.272
				c-4.066-3.204-6.329-9.714-1.833-13.419"/>
			<path style="fill:none;stroke:#FFFFFF;stroke-width:1.1339;stroke-miterlimit:10;" d="M112.468,188.984
				c0,0,5.791,6.315,16.698,8.263"/>
			<path style="fill:none;stroke:#FFFFFF;stroke-width:1.1339;stroke-miterlimit:10;" d="M113.324,186.512
				c0,0,5.791,6.315,16.698,8.263"/>
			<path style="fill:none;stroke:#202932;stroke-width:1.1339;stroke-miterlimit:10;" d="M118.699,201.417
				c-6.384-3.828-10.818-7.338-11.004-11.856"/>
			<g>
				<defs>
					<path id="SVGID_1_" d="M136.053,203.852c0,0-5,3.771-5.799,6.46c-0.537,1.808,5.316,9.348,9.21,14.095
						c2.209,2.694,6.232,3.237,8.922,1.024c2.247-1.848,1.789-4.357-2.513-11.55c7.201-3.538,1.813-6.529-3.024-2.477
						C141.19,210.139,136.053,203.852,136.053,203.852z"/>
				</defs>
				<clipPath id="SVGID_00000139972233775296495740000008759733577234850474_">
					<use xlink:href="#SVGID_1_"  style="overflow:visible;"/>
				</clipPath>
				<g style="clip-path:url(#SVGID_00000139972233775296495740000008759733577234850474_);">
					<path style="fill:#BA3240;" d="M136.053,203.852c0,0-5,3.771-5.799,6.46c-0.537,1.808,5.316,9.348,9.21,14.095
						c2.209,2.694,6.232,3.237,8.922,1.024c2.247-1.848,1.789-4.357-2.513-11.55c7.201-3.538,1.813-6.529-3.024-2.477
						C141.19,210.139,136.053,203.852,136.053,203.852z"/>
					<path style="fill:#FFFFFF;" d="M131.078,207.301c0,0,5.914,10.354,9.429,14.347c3.245-3.797,9.283-2.911,9.283-2.911
						l0.749,6.062l-3.209,1.584c-2.726,1.345-6.021,0.61-7.915-1.768l-10.17-12.762L131.078,207.301z"/>
				</g>
				
					<path style="clip-path:url(#SVGID_00000139972233775296495740000008759733577234850474_);fill:none;stroke:#961217;stroke-width:1.1339;stroke-miterlimit:10;" d="
					M145.315,218.954c0,0-2.867-5.352-2.466-7.55"/>
			</g>
			
				<line style="fill:none;stroke:#202932;stroke-width:1.1339;stroke-miterlimit:10;" x1="125.748" y1="204.144" x2="133.545" y2="188.411"/>
			<path style="fill:none;stroke:#D88829;stroke-width:1.1339;stroke-miterlimit:10;" d="M136.959,189.561
				c8.529,0.491,14.399,6.715,13.553,9.87"/>
			<g>
				<g>
					<path style="fill:#FFCB06;" d="M104.86,191.349c3.293,5.838,6.369,3.328,5.74,0.495c3.366,2.957,5.967,1.542,5.307-1.836
						c6.08,3.073,5.822-2.818,4.289-5.669c4.261-2.716-0.462-7.586-5.269-7.68C110.121,176.564,98.163,179.873,104.86,191.349z"/>
					
						<line style="fill:none;stroke:#D88829;stroke-width:1.1339;stroke-miterlimit:10;" x1="117.735" y1="180.734" x2="120.197" y2="184.339"/>
					
						<line style="fill:none;stroke:#D88829;stroke-width:1.1339;stroke-miterlimit:10;" x1="114.188" y1="187.359" x2="115.908" y2="190.008"/>
					
						<line style="fill:none;stroke:#D88829;stroke-width:1.1339;stroke-miterlimit:10;" x1="108.955" y1="189.185" x2="110.6" y2="191.844"/>
				</g>
				<path style="fill:#FFCB06;" d="M103.491,188.453c0,0-8.581-13.351-7.031-17.663c1.549-4.312,22.233-8.114,23.541-8.21
					c1.308-0.096,2.74,11.981,2.74,11.981l-12.853,0.467l3.148,3.636L103.491,188.453z"/>
				
					<line style="fill:none;stroke:#D88829;stroke-width:1.1339;stroke-miterlimit:10;" x1="109.888" y1="175.028" x2="106.114" y2="170.661"/>
				<path style="fill:#8457ED;" d="M129.168,174.449c-0.8-0.234-9.966,1.167-9.966,1.167l-3.3-13.366l12.082-1.51"/>
				
					<line style="fill:none;stroke:#6643B8;stroke-width:1.1339;stroke-miterlimit:10;" x1="119.201" y1="175.616" x2="127.69" y2="174.493"/>
			</g>
			<circle style="fill:#FFFFFF;" cx="136.959" cy="209.521" r="1.94"/>
			
				<line style="fill:none;stroke:#6643B8;stroke-width:1.1339;stroke-miterlimit:10;" x1="118.699" y1="161.9" x2="121.279" y2="175.309"/>
			
				<line style="fill:none;stroke:#6643B8;stroke-width:1.1339;stroke-miterlimit:10;" x1="140.786" y1="176.656" x2="143.955" y2="175.309"/>
			<path style="fill:none;stroke:#6643B8;stroke-width:1.1339;stroke-miterlimit:10;" d="M120.982,185.774
				c0,0,12.886,0.607,16.735,1.573"/>
		</g>
	</g>
</g>
<g id="TEXTS">
</g>
</svg>
